<svg width="198" height="70" viewBox="0 0 198 70" fill="none" xmlns="http://www.w3.org/2000/svg">
<rect width="198" height="70" rx="8" fill="white"/>
<path d="M124.517 33.4366V36.0786H122.861V37.8112H124.517V43.6984C124.517 45.7086 125.427 46.5127 127.715 46.5127C128.117 46.5127 128.499 46.4649 128.835 46.4074V44.6939C128.547 44.7226 128.365 44.7418 128.05 44.7418C127.025 44.7418 126.575 44.2632 126.575 43.1719V37.8112H128.835V36.0786H126.575V33.4366H124.517Z" fill="#141623"/>
<path d="M134.663 46.6563C137.707 46.6563 139.573 44.6173 139.573 41.2382C139.573 37.8783 137.697 35.8297 134.663 35.8297C131.619 35.8297 129.742 37.8783 129.742 41.2382C129.742 44.6173 131.609 46.6563 134.663 46.6563ZM134.663 44.8279C132.873 44.8279 131.868 43.5165 131.868 41.2382C131.868 38.9791 132.873 37.6581 134.663 37.6581C136.443 37.6581 137.458 38.9791 137.458 41.2382C137.458 43.5069 136.443 44.8279 134.663 44.8279Z" fill="#141623"/>
<path d="M141.171 46.4553H143.229V40.3001C143.229 38.8355 144.329 37.8495 145.89 37.8495C146.254 37.8495 146.866 37.9165 147.039 37.974V35.9446C146.818 35.8872 146.426 35.8584 146.12 35.8584C144.76 35.8584 143.602 36.6051 143.305 37.6294H143.152V36.0307H141.171V46.4553Z" fill="#141623"/>
<path d="M152.149 37.5815C153.671 37.5815 154.666 38.6441 154.714 40.281H149.449C149.564 38.6536 150.627 37.5815 152.149 37.5815ZM154.705 43.6409C154.322 44.4546 153.47 44.9045 152.225 44.9045C150.579 44.9045 149.516 43.7462 149.449 41.9179V41.803H156.811V41.0851C156.811 37.8112 155.059 35.8297 152.158 35.8297C149.22 35.8297 147.353 37.9453 147.353 41.2765C147.353 44.6078 149.181 46.6563 152.168 46.6563C154.551 46.6563 156.217 45.5076 156.686 43.6409H154.705Z" fill="#141623"/>
<path d="M111.021 42.6057C111.179 45.1655 113.312 46.8025 116.487 46.8025C119.881 46.8025 122.004 45.0861 122.004 42.3477C122.004 40.1947 120.793 39.0041 117.857 38.3195L116.279 37.9325C114.414 37.496 113.66 36.9106 113.66 35.8887C113.66 34.5989 114.831 33.7555 116.587 33.7555C118.253 33.7555 119.404 34.579 119.613 35.8986H121.776C121.647 33.4876 119.523 31.791 116.616 31.791C113.491 31.791 111.408 33.4876 111.408 36.0375C111.408 38.1409 112.588 39.391 115.178 39.9963L117.023 40.4427C118.918 40.8892 119.752 41.544 119.752 42.6354C119.752 43.9054 118.442 44.8281 116.656 44.8281C114.741 44.8281 113.412 43.9649 113.223 42.6057H111.021Z" fill="#141623"/>
<path d="M89.7007 35.8584C88.284 35.8584 87.0587 36.5668 86.4269 37.7538H86.2737V36.0307H84.2922V49.9206H86.3503V44.8758H86.513C87.0587 45.9767 88.2361 46.6276 89.7199 46.6276C92.3523 46.6276 94.0275 44.5503 94.0275 41.2382C94.0275 37.9261 92.3523 35.8584 89.7007 35.8584ZM89.1168 44.7801C87.3937 44.7801 86.312 43.4208 86.312 41.2478C86.312 39.0653 87.3937 37.7059 89.1264 37.7059C90.8686 37.7059 91.912 39.0365 91.912 41.2382C91.912 43.4495 90.8686 44.7801 89.1168 44.7801Z" fill="#141623"/>
<path d="M101.229 35.8584C99.8124 35.8584 98.5871 36.5668 97.9553 37.7538H97.8022V36.0307H95.8207V49.9206H97.8788V44.8758H98.0415C98.5871 45.9767 99.7646 46.6276 101.248 46.6276C103.881 46.6276 105.556 44.5503 105.556 41.2382C105.556 37.9261 103.881 35.8584 101.229 35.8584ZM100.645 44.7801C98.9222 44.7801 97.8405 43.4208 97.8405 41.2478C97.8405 39.0653 98.9222 37.7059 100.655 37.7059C102.397 37.7059 103.44 39.0365 103.44 41.2382C103.44 43.4495 102.397 44.7801 100.645 44.7801Z" fill="#141623"/>
<path d="M80.5996 46.4553H82.961L77.7918 32.1383H75.4006L70.2314 46.4553H72.5134L73.833 42.6553H79.29L80.5996 46.4553ZM76.4821 34.7378H76.6508L78.7244 40.79H74.3986L76.4821 34.7378Z" fill="#141623"/>
<path d="M71.6118 21.3398V28.2464H74.1055C76.1636 28.2464 77.3554 26.9781 77.3554 24.7716C77.3554 22.5986 76.154 21.3398 74.1055 21.3398H71.6118ZM72.6839 22.3162H73.9858C75.4169 22.3162 76.2641 23.2256 76.2641 24.786C76.2641 26.3702 75.4313 27.27 73.9858 27.27H72.6839V22.3162Z" fill="#141623"/>
<path d="M81.0054 28.347C82.5274 28.347 83.4608 27.3275 83.4608 25.6379C83.4608 23.9579 82.5226 22.9337 81.0054 22.9337C79.4833 22.9337 78.5452 23.9579 78.5452 25.6379C78.5452 27.3275 79.4786 28.347 81.0054 28.347ZM81.0054 27.4328C80.1104 27.4328 79.6078 26.7771 79.6078 25.6379C79.6078 24.5083 80.1104 23.8478 81.0054 23.8478C81.8956 23.8478 82.403 24.5083 82.403 25.6379C82.403 26.7723 81.8956 27.4328 81.0054 27.4328Z" fill="#141623"/>
<path d="M91.4089 23.0342H90.3798L89.4513 27.0116H89.3699L88.2978 23.0342H87.3118L86.2397 27.0116H86.1631L85.2298 23.0342H84.1864L85.6222 28.2464H86.68L87.7521 24.4078H87.8335L88.9104 28.2464H89.9778L91.4089 23.0342Z" fill="#141623"/>
<path d="M92.5939 28.2464H93.623V25.1976C93.623 24.3839 94.1064 23.8766 94.8674 23.8766C95.6285 23.8766 95.9922 24.293 95.9922 25.1306V28.2464H97.0213V24.8721C97.0213 23.6325 96.3799 22.9337 95.2168 22.9337C94.4319 22.9337 93.915 23.2831 93.6613 23.8622H93.5847V23.0342H92.5939V28.2464Z" fill="#141623"/>
<path d="M98.6419 28.2464H99.671V21H98.6419V28.2464Z" fill="#141623"/>
<path d="M103.541 28.347C105.063 28.347 105.997 27.3275 105.997 25.6379C105.997 23.9579 105.058 22.9337 103.541 22.9337C102.019 22.9337 101.081 23.9579 101.081 25.6379C101.081 27.3275 102.014 28.347 103.541 28.347ZM103.541 27.4328C102.646 27.4328 102.144 26.7771 102.144 25.6379C102.144 24.5083 102.646 23.8478 103.541 23.8478C104.431 23.8478 104.939 24.5083 104.939 25.6379C104.939 26.7723 104.431 27.4328 103.541 27.4328Z" fill="#141623"/>
<path d="M109.063 27.4663C108.503 27.4663 108.096 27.1935 108.096 26.7244C108.096 26.2649 108.421 26.0208 109.139 25.973L110.412 25.8916V26.3271C110.412 26.9733 109.838 27.4663 109.063 27.4663ZM108.799 28.3326C109.484 28.3326 110.053 28.0358 110.364 27.5141H110.446V28.2464H111.437V24.6854C111.437 23.5846 110.7 22.9337 109.393 22.9337C108.211 22.9337 107.368 23.508 107.263 24.4031H108.259C108.373 24.0345 108.771 23.8239 109.345 23.8239C110.049 23.8239 110.412 24.135 110.412 24.6854V25.1354L109 25.2167C107.761 25.2933 107.062 25.8342 107.062 26.7723C107.062 27.7247 107.794 28.3326 108.799 28.3326Z" fill="#141623"/>
<path d="M114.929 28.3326C115.647 28.3326 116.254 27.9928 116.566 27.4232H116.647V28.2464H117.633V21H116.604V23.8622H116.527C116.245 23.2878 115.642 22.948 114.929 22.948C113.612 22.948 112.765 23.9914 112.765 25.6379C112.765 27.2892 113.603 28.3326 114.929 28.3326ZM115.221 23.8718C116.082 23.8718 116.623 24.5562 116.623 25.6427C116.623 26.734 116.087 27.4088 115.221 27.4088C114.35 27.4088 113.828 26.7435 113.828 25.6379C113.828 24.5419 114.354 23.8718 115.221 23.8718Z" fill="#141623"/>
<path d="M124.306 28.347C125.828 28.347 126.761 27.3275 126.761 25.6379C126.761 23.9579 125.823 22.9337 124.306 22.9337C122.784 22.9337 121.846 23.9579 121.846 25.6379C121.846 27.3275 122.779 28.347 124.306 28.347ZM124.306 27.4328C123.411 27.4328 122.908 26.7771 122.908 25.6379C122.908 24.5083 123.411 23.8478 124.306 23.8478C125.196 23.8478 125.704 24.5083 125.704 25.6379C125.704 26.7723 125.196 27.4328 124.306 27.4328Z" fill="#141623"/>
<path d="M128.124 28.2464H129.153V25.1976C129.153 24.3839 129.636 23.8766 130.397 23.8766C131.158 23.8766 131.522 24.293 131.522 25.1306V28.2464H132.551V24.8721C132.551 23.6325 131.909 22.9337 130.746 22.9337C129.961 22.9337 129.445 23.2831 129.191 23.8622H129.114V23.0342H128.124V28.2464Z" fill="#141623"/>
<path d="M137.29 21.7371V23.0581H136.462V23.9244H137.29V26.868C137.29 27.8731 137.745 28.2752 138.889 28.2752C139.09 28.2752 139.281 28.2512 139.449 28.2225V27.3658C139.305 27.3801 139.214 27.3897 139.056 27.3897C138.544 27.3897 138.319 27.1504 138.319 26.6047V23.9244H139.449V23.0581H138.319V21.7371H137.29Z" fill="#141623"/>
<path d="M140.83 28.2464H141.859V25.2024C141.859 24.4126 142.328 23.8813 143.171 23.8813C143.898 23.8813 144.286 24.3025 144.286 25.1354V28.2464H145.315V24.8817C145.315 23.642 144.63 22.9384 143.52 22.9384C142.735 22.9384 142.185 23.2878 141.931 23.8718H141.85V21H140.83V28.2464Z" fill="#141623"/>
<path d="M149.027 23.8096C149.788 23.8096 150.286 24.3408 150.31 25.1593H147.677C147.735 24.3456 148.266 23.8096 149.027 23.8096ZM150.305 26.8393C150.114 27.2461 149.688 27.4711 149.065 27.4711C148.242 27.4711 147.711 26.8919 147.677 25.9777V25.9203H151.358V25.5613C151.358 23.9244 150.482 22.9337 149.032 22.9337C147.563 22.9337 146.629 23.9914 146.629 25.6571C146.629 27.3227 147.543 28.347 149.037 28.347C150.229 28.347 151.061 27.7726 151.296 26.8393H150.305Z" fill="#141623"/>
<path d="M59.0645 34.7062C59.0894 32.7676 60.1305 30.9333 61.7821 29.918C60.7402 28.43 58.9951 27.4865 57.1794 27.4297C55.2429 27.2264 53.3655 28.5885 52.3787 28.5885C51.3728 28.5885 49.8534 27.4499 48.2173 27.4836C46.0848 27.5525 44.0966 28.7649 43.0591 30.6294C40.8288 34.4908 42.4924 40.1658 44.6289 43.2871C45.6978 44.8156 46.947 46.5228 48.5816 46.4623C50.1812 46.3959 50.7786 45.4423 52.7095 45.4423C54.6224 45.4423 55.1829 46.4623 56.8507 46.4238C58.5671 46.3959 59.6485 44.8886 60.6799 43.3457C61.4479 42.2567 62.0389 41.053 62.431 39.7794C60.4139 38.9262 59.0668 36.8963 59.0645 34.7062Z" fill="#141623"/>
<path d="M55.9143 25.377C56.8501 24.2535 57.3112 22.8095 57.1996 21.3516C55.7698 21.5017 54.449 22.1851 53.5005 23.2654C52.573 24.321 52.0903 25.7396 52.1816 27.1419C53.6119 27.1566 55.018 26.4918 55.9143 25.377Z" fill="#141623"/>
</svg>
