<svg width="198" height="70" viewBox="0 0 198 70" fill="none" xmlns="http://www.w3.org/2000/svg">
<rect width="198" height="70" rx="8" fill="#00966B"/>
<path d="M99.1643 35.8856C96.8123 35.8856 94.8953 37.6746 94.8953 40.1386C94.8953 42.5876 96.8123 44.3916 99.1643 44.3916C101.517 44.3916 103.434 42.5876 103.434 40.1386C103.433 37.6746 101.516 35.8856 99.1643 35.8856ZM99.1643 42.7176C97.8753 42.7176 96.7643 41.6546 96.7643 40.1396C96.7643 38.6086 97.8763 37.5616 99.1643 37.5616C100.453 37.5616 101.564 38.6086 101.564 40.1396C101.564 41.6536 100.453 42.7176 99.1643 42.7176ZM89.8503 35.8856C87.4983 35.8856 85.5813 37.6746 85.5813 40.1386C85.5813 42.5876 87.4983 44.3916 89.8503 44.3916C92.2033 44.3916 94.1203 42.5876 94.1203 40.1386C94.1203 37.6746 92.2033 35.8856 89.8503 35.8856ZM89.8503 42.7176C88.5613 42.7176 87.4503 41.6546 87.4503 40.1396C87.4503 38.6086 88.5623 37.5616 89.8503 37.5616C91.1393 37.5616 92.2503 38.6086 92.2503 40.1396C92.2513 41.6536 91.1393 42.7176 89.8503 42.7176ZM78.7723 37.1916V38.9956H83.0903C82.9613 40.0106 82.6233 40.7516 82.1073 41.2666C81.4793 41.8946 80.4963 42.5876 78.7723 42.5876C76.1143 42.5876 74.0363 40.4446 74.0363 37.7866C74.0363 35.1286 76.1143 32.9856 78.7723 32.9856C80.2063 32.9856 81.2533 33.5496 82.0263 34.2746L83.2993 33.0016C82.2193 31.9706 80.7863 31.1816 78.7723 31.1816C75.1313 31.1816 72.0703 34.1456 72.0703 37.7866C72.0703 41.4276 75.1313 44.3916 78.7723 44.3916C80.7373 44.3916 82.2203 43.7466 83.3793 42.5386C84.5713 41.3466 84.9423 39.6706 84.9423 38.3176C84.9423 37.8996 84.9103 37.5126 84.8453 37.1906H78.7723V37.1916ZM124.08 38.5926C123.726 37.6426 122.646 35.8856 120.439 35.8856C118.248 35.8856 116.427 37.6096 116.427 40.1386C116.427 42.5226 118.232 44.3916 120.648 44.3916C122.597 44.3916 123.725 43.1996 124.193 42.5066L122.743 41.5396C122.26 42.2486 121.599 42.7156 120.648 42.7156C119.698 42.7156 119.021 42.2806 118.586 41.4266L124.273 39.0746L124.08 38.5926ZM118.28 40.0106C118.232 38.3666 119.553 37.5296 120.504 37.5296C121.245 37.5296 121.873 37.9006 122.083 38.4316L118.28 40.0106ZM113.657 44.1346H115.525V31.6336H113.657V44.1346ZM110.595 36.8366H110.531C110.112 36.3366 109.306 35.8856 108.292 35.8856C106.165 35.8856 104.216 37.7546 104.216 40.1556C104.216 42.5396 106.165 44.3926 108.292 44.3926C109.307 44.3926 110.112 43.9416 110.531 43.4266H110.595V44.0386C110.595 45.6656 109.725 46.5356 108.324 46.5356C107.18 46.5356 106.471 45.7146 106.181 45.0216L104.554 45.6986C105.021 46.8256 106.261 48.2116 108.324 48.2116C110.515 48.2116 112.368 46.9226 112.368 43.7806V36.1446H110.596V36.8366H110.595ZM108.453 42.7176C107.164 42.7176 106.085 41.6376 106.085 40.1556C106.085 38.6566 107.164 37.5616 108.453 37.5616C109.725 37.5616 110.724 38.6566 110.724 40.1556C110.724 41.6376 109.725 42.7176 108.453 42.7176ZM132.834 31.6336H128.363V44.1346H130.228V39.3986H132.833C134.901 39.3986 136.935 37.9016 136.935 35.5166C136.935 33.1316 134.902 31.6336 132.834 31.6336ZM132.882 37.6586H130.228V33.3736H132.882C134.277 33.3736 135.069 34.5286 135.069 35.5166C135.069 36.4846 134.277 37.6586 132.882 37.6586ZM144.414 35.8636C143.063 35.8636 141.664 36.4586 141.085 37.7776L142.741 38.4686C143.095 37.7776 143.755 37.5516 144.446 37.5516C145.411 37.5516 146.392 38.1306 146.408 39.1596V39.2886C146.07 39.0956 145.346 38.8066 144.462 38.8066C142.677 38.8066 140.859 39.7876 140.859 41.6206C140.859 43.2936 142.323 44.3706 143.963 44.3706C145.217 44.3706 145.909 43.8076 146.343 43.1476H146.407V44.1126H148.209V39.3196C148.21 37.1016 146.552 35.8636 144.414 35.8636ZM144.188 42.7146C143.578 42.7146 142.725 42.4086 142.725 41.6526C142.725 40.6876 143.787 40.3176 144.704 40.3176C145.523 40.3176 145.91 40.4946 146.408 40.7356C146.263 41.8946 145.266 42.7146 144.188 42.7146ZM154.771 36.1366L152.632 41.5566H152.568L150.348 36.1366H148.338L151.667 43.7116L149.769 47.9256H151.715L156.846 36.1366H154.771ZM137.965 44.1346H139.83V31.6336H137.965V44.1346Z" fill="white"/>
<path d="M78.4449 24.378C78.4449 25.216 78.1969 25.883 77.6999 26.381C77.1359 26.973 76.3999 27.269 75.4959 27.269C74.6299 27.269 73.8929 26.969 73.2879 26.369C72.6819 25.768 72.3789 25.024 72.3789 24.136C72.3789 23.247 72.6819 22.503 73.2879 21.903C73.8929 21.302 74.6299 21.002 75.4959 21.002C75.9259 21.002 76.3369 21.086 76.7269 21.253C77.1179 21.421 77.4309 21.644 77.6649 21.923L77.1379 22.451C76.7409 21.976 76.1939 21.739 75.4949 21.739C74.8629 21.739 74.3169 21.961 73.8559 22.405C73.3949 22.849 73.1649 23.426 73.1649 24.135C73.1649 24.844 73.3949 25.421 73.8559 25.865C74.3169 26.309 74.8629 26.531 75.4949 26.531C76.1649 26.531 76.7239 26.308 77.1709 25.861C77.4609 25.57 77.6289 25.165 77.6739 24.646H75.4949V23.925H78.4019C78.4319 24.082 78.4449 24.233 78.4449 24.378Z" fill="white"/>
<path d="M83.055 21.872H80.323V23.774H82.787V24.495H80.323V26.397H83.055V27.135H79.552V21.135H83.055V21.872Z" fill="white"/>
<path d="M86.3059 27.135H85.5349V21.872H83.8589V21.135H87.9819V21.872H86.3059V27.135Z" fill="white"/>
<path d="M90.9648 27.135V21.135H91.7358V27.135H90.9648Z" fill="white"/>
<path d="M95.155 27.135H94.384V21.872H92.708V21.135H96.831V21.872H95.155V27.135Z" fill="white"/>
<path d="M104.636 26.36C104.046 26.966 103.313 27.269 102.436 27.269C101.559 27.269 100.826 26.966 100.237 26.36C99.6468 25.754 99.3528 25.012 99.3528 24.135C99.3528 23.258 99.6468 22.516 100.237 21.91C100.826 21.304 101.559 21 102.436 21C103.308 21 104.04 21.305 104.632 21.914C105.224 22.523 105.52 23.263 105.52 24.135C105.52 25.012 105.225 25.754 104.636 26.36ZM100.806 25.857C101.25 26.307 101.793 26.531 102.436 26.531C103.079 26.531 103.623 26.306 104.066 25.857C104.51 25.407 104.733 24.833 104.733 24.135C104.733 23.437 104.51 22.863 104.066 22.413C103.623 21.963 103.079 21.739 102.436 21.739C101.793 21.739 101.25 21.964 100.806 22.413C100.363 22.863 100.14 23.437 100.14 24.135C100.14 24.833 100.363 25.407 100.806 25.857Z" fill="white"/>
<path d="M106.602 27.135V21.135H107.54L110.456 25.802H110.489L110.456 24.646V21.135H111.227V27.135H110.422L107.371 22.241H107.338L107.371 23.397V27.135H106.602Z" fill="white"/>
<path fill-rule="evenodd" clip-rule="evenodd" d="M41.1832 22.1013C41.0652 22.3687 41 22.6964 41 23.0775V45.1935C41 45.5757 41.0654 45.9035 41.1837 46.1709L53.2174 34.1355L41.1832 22.1013ZM41.8788 46.89C42.3248 47.0808 42.9066 47.0202 43.541 46.6605L57.6978 38.6159L53.9245 34.8426L41.8788 46.89ZM58.6002 38.1041L63.042 35.5805C64.439 34.7855 64.439 33.4865 63.042 32.6925L58.5987 30.1677L54.6316 34.1354L58.6002 38.1041ZM57.697 29.6553L43.541 21.6115C42.9063 21.2508 42.3243 21.1907 41.8782 21.382L53.9245 33.4283L57.697 29.6553Z" fill="white"/>
</svg>
