<svg width="98" height="31" viewBox="0 0 98 31" fill="none" xmlns="http://www.w3.org/2000/svg">
<path d="M93.2 1H90.8V4.10315L88.6057 1.9088L86.9086 3.60586L89.1027 5.8H86V8.2H89.1025L86.9085 10.3941L88.6055 12.0911L90.8 9.89666V13H93.2V9.89727L95.3939 12.0911L97.0909 10.3941L94.8969 8.2H98V5.8H94.8967L97.0908 3.60585L95.3938 1.90879L93.2 4.10254V1Z" fill="#00966B"/>
<path d="M1.92472 25V6.09091H9.49574C10.8868 6.09091 12.0471 6.29711 12.9766 6.70952C13.906 7.12192 14.6046 7.69437 15.0724 8.42685C15.5402 9.15317 15.7741 9.99029 15.7741 10.9382C15.7741 11.6768 15.6264 12.3262 15.331 12.8864C15.0355 13.4403 14.6293 13.8958 14.1122 14.2528C13.6013 14.6037 13.0166 14.853 12.358 15.0007V15.1854C13.0781 15.2161 13.7521 15.4193 14.38 15.7947C15.014 16.1702 15.5279 16.6965 15.9219 17.3736C16.3158 18.0445 16.5128 18.8447 16.5128 19.7741C16.5128 20.7775 16.2635 21.6731 15.7649 22.4609C15.2725 23.2427 14.5431 23.8613 13.5767 24.3168C12.6103 24.7723 11.4193 25 10.0036 25H1.92472ZM5.92259 21.7315H9.18182C10.2959 21.7315 11.1084 21.5192 11.6193 21.0945C12.1302 20.6636 12.3857 20.0911 12.3857 19.3771C12.3857 18.8539 12.2595 18.3923 12.0071 17.9922C11.7547 17.5921 11.3947 17.2782 10.9268 17.0504C10.4652 16.8227 9.9143 16.7088 9.27415 16.7088H5.92259V21.7315ZM5.92259 14.0036H8.88636C9.43419 14.0036 9.92045 13.9081 10.3452 13.7173C10.776 13.5204 11.1146 13.2434 11.3608 12.8864C11.6132 12.5294 11.7393 12.1016 11.7393 11.603C11.7393 10.9197 11.4962 10.3688 11.0099 9.95028C10.5298 9.53172 9.84659 9.32244 8.96023 9.32244H5.92259V14.0036ZM25.5034 25.277C24.0446 25.277 22.7889 24.9815 21.7363 24.3906C20.6899 23.7936 19.8836 22.9503 19.3173 21.8608C18.751 20.7652 18.4679 19.4695 18.4679 17.9737C18.4679 16.5149 18.751 15.2346 19.3173 14.1328C19.8836 13.031 20.6807 12.1723 21.7086 11.5568C22.7427 10.9413 23.9553 10.6335 25.3464 10.6335C26.282 10.6335 27.153 10.7843 27.9593 11.0859C28.7718 11.3814 29.4797 11.8277 30.0829 12.4247C30.6923 13.0218 31.1663 13.7727 31.5048 14.6776C31.8433 15.5762 32.0126 16.6288 32.0126 17.8352V18.9155H20.0375V16.478H28.3102C28.3102 15.9117 28.1871 15.41 27.9409 14.973C27.6947 14.536 27.353 14.1944 26.916 13.9482C26.4851 13.6958 25.9835 13.5696 25.411 13.5696C24.814 13.5696 24.2846 13.7081 23.823 13.9851C23.3675 14.2559 23.0105 14.6222 22.752 15.0838C22.4934 15.5393 22.3611 16.0471 22.3549 16.6072V18.9247C22.3549 19.6264 22.4842 20.2327 22.7427 20.7436C23.0074 21.2545 23.3798 21.6484 23.8599 21.9254C24.34 22.2024 24.9094 22.3409 25.568 22.3409C26.005 22.3409 26.4051 22.2794 26.7683 22.1562C27.1315 22.0331 27.4423 21.8485 27.7008 21.6023C27.9593 21.3561 28.1563 21.0545 28.2917 20.6974L31.9295 20.9375C31.7449 21.8116 31.3663 22.5748 30.7939 23.2273C30.2276 23.8736 29.4951 24.3783 28.5964 24.7415C27.7039 25.0985 26.6729 25.277 25.5034 25.277ZM46.3791 14.8622L42.7782 15.0838C42.7167 14.776 42.5843 14.4991 42.3812 14.2528C42.1781 14.0005 41.9103 13.8004 41.5779 13.6527C41.2517 13.4988 40.8609 13.4219 40.4054 13.4219C39.796 13.4219 39.282 13.5511 38.8635 13.8097C38.4449 14.062 38.2356 14.4006 38.2356 14.8253C38.2356 15.1638 38.371 15.45 38.6419 15.6839C38.9127 15.9179 39.3774 16.1056 40.036 16.2472L42.6028 16.7642C43.9816 17.0473 45.0095 17.5028 45.6866 18.1307C46.3637 18.7585 46.7022 19.5833 46.7022 20.6051C46.7022 21.5346 46.4283 22.3501 45.8805 23.0518C45.3388 23.7536 44.594 24.3014 43.6461 24.6953C42.7044 25.0831 41.618 25.277 40.3869 25.277C38.5095 25.277 37.0138 24.8861 35.8997 24.1044C34.7917 23.3165 34.1423 22.2455 33.9515 20.8913L37.8201 20.6882C37.9371 21.2607 38.2202 21.6977 38.6696 21.9993C39.1189 22.2947 39.6944 22.4425 40.3961 22.4425C41.0855 22.4425 41.6395 22.3101 42.0581 22.0455C42.4828 21.7746 42.6982 21.4268 42.7044 21.0021C42.6982 20.6451 42.5474 20.3527 42.252 20.125C41.9565 19.8911 41.501 19.7126 40.8855 19.5895L38.4295 19.1001C37.0446 18.8232 36.0136 18.343 35.3365 17.6598C34.6655 16.9766 34.3301 16.1056 34.3301 15.0469C34.3301 14.1359 34.5763 13.3511 35.0687 12.6925C35.5673 12.0339 36.2659 11.526 37.1646 11.169C38.0694 10.812 39.1281 10.6335 40.3407 10.6335C42.1319 10.6335 43.5415 11.0121 44.5694 11.7692C45.6035 12.5263 46.2067 13.5573 46.3791 14.8622ZM53.1122 16.8011V25H49.179V10.8182H52.9276V13.3203H53.0938C53.4077 12.4955 53.9339 11.843 54.6726 11.3629C55.4112 10.8767 56.3068 10.6335 57.3594 10.6335C58.3442 10.6335 59.2029 10.849 59.9354 11.2798C60.6679 11.7107 61.2372 12.3262 61.6435 13.1264C62.0497 13.9205 62.2528 14.8684 62.2528 15.9702V25H58.3196V16.6719C58.3258 15.804 58.1042 15.1269 57.6548 14.6406C57.2055 14.1482 56.5869 13.902 55.799 13.902C55.2696 13.902 54.8018 14.0159 54.3956 14.2436C53.9955 14.4714 53.6816 14.8037 53.4538 15.2408C53.2322 15.6716 53.1184 16.1918 53.1122 16.8011ZM65.3528 25V10.8182H69.286V25H65.3528ZM67.3287 8.99006C66.7439 8.99006 66.2422 8.79616 65.8237 8.40838C65.4113 8.01444 65.2051 7.54356 65.2051 6.99574C65.2051 6.45407 65.4113 5.98935 65.8237 5.60156C66.2422 5.20762 66.7439 5.01065 67.3287 5.01065C67.9134 5.01065 68.412 5.20762 68.8244 5.60156C69.243 5.98935 69.4522 6.45407 69.4522 6.99574C69.4522 7.54356 69.243 8.01444 68.8244 8.40838C68.412 8.79616 67.9134 8.99006 67.3287 8.99006ZM76.0007 20.919L76.0099 16.201H76.5824L81.125 10.8182H85.6399L79.5369 17.946H78.6044L76.0007 20.919ZM72.4368 25V6.09091H76.37V25H72.4368ZM81.3004 25L77.1271 18.8232L79.7493 16.044L85.9077 25H81.3004Z" fill="#001B13"/>
</svg>
