<svg width="98" height="31" viewBox="0 0 98 31" fill="none" xmlns="http://www.w3.org/2000/svg">
<path d="M93.2 1H90.8V4.10315L88.6057 1.9088L86.9086 3.60586L89.1027 5.8H86V8.2H89.1025L86.9085 10.3941L88.6055 12.0911L90.8 9.89666V13H93.2V9.89727L95.3939 12.0911L97.0909 10.3941L94.8969 8.2H98V5.8H94.8967L97.0908 3.60585L95.3938 1.90879L93.2 4.10254V1Z" fill="#00966B"/>
<path d="M1.92472 25H10.0036C14.2507 25 16.5128 22.7841 16.5128 19.7741C16.5128 16.9766 14.5092 15.2869 12.358 15.1854V15.0007C14.3246 14.5575 15.7741 13.1634 15.7741 10.9382C15.7741 8.10369 13.669 6.09091 9.49574 6.09091H1.92472V25ZM5.92259 21.7315V16.7088H9.27415C11.1946 16.7088 12.3857 17.8168 12.3857 19.3771C12.3857 20.799 11.4162 21.7315 9.18182 21.7315H5.92259ZM5.92259 14.0036V9.32244H8.96023C10.733 9.32244 11.7393 10.2365 11.7393 11.603C11.7393 13.0987 10.5206 14.0036 8.88636 14.0036H5.92259ZM25.5034 25.277C29.0119 25.277 31.3755 23.5689 31.9295 20.9375L28.2917 20.6974C27.8947 21.7777 26.8791 22.3409 25.568 22.3409C23.6014 22.3409 22.3549 21.0391 22.3549 18.9247V18.9155H32.0126V17.8352C32.0126 13.0156 29.095 10.6335 25.3464 10.6335C21.1731 10.6335 18.4679 13.5973 18.4679 17.9737C18.4679 22.4702 21.1362 25.277 25.5034 25.277ZM22.3549 16.478C22.438 14.8622 23.666 13.5696 25.411 13.5696C27.1191 13.5696 28.301 14.7884 28.3102 16.478H22.3549ZM46.3791 14.8622C46.0282 12.2493 43.9231 10.6335 40.3407 10.6335C36.7122 10.6335 34.3208 12.3139 34.3301 15.0469C34.3208 17.1705 35.6596 18.5462 38.4295 19.1001L40.8855 19.5895C42.1227 19.8388 42.6859 20.2912 42.7044 21.0021C42.6859 21.8423 41.7718 22.4425 40.3961 22.4425C38.9927 22.4425 38.0602 21.8423 37.8201 20.6882L33.9515 20.8913C34.3208 23.6058 36.6291 25.277 40.3869 25.277C44.0616 25.277 46.693 23.4027 46.7022 20.6051C46.693 18.5554 45.3542 17.3274 42.6028 16.7642L40.036 16.2472C38.7157 15.9609 38.2264 15.5085 38.2356 14.8253C38.2264 13.9759 39.1866 13.4219 40.4054 13.4219C41.7718 13.4219 42.5843 14.1697 42.7782 15.0838L46.3791 14.8622ZM53.1122 16.8011C53.1214 14.973 54.2109 13.902 55.799 13.902C57.3778 13.902 58.3288 14.9361 58.3196 16.6719V25H62.2528V15.9702C62.2528 12.6648 60.3139 10.6335 57.3594 10.6335C55.2543 10.6335 53.7308 11.6676 53.0938 13.3203H52.9276V10.8182H49.179V25H53.1122V16.8011ZM65.3528 25H69.286V10.8182H65.3528V25ZM67.3287 8.99006C68.5012 8.99006 69.4615 8.09446 69.4615 6.99574C69.4615 5.90625 68.5012 5.01065 67.3287 5.01065C66.1653 5.01065 65.2051 5.90625 65.2051 6.99574C65.2051 8.09446 66.1653 8.99006 67.3287 8.99006ZM72.4368 25H76.37V20.4943L77.4318 19.2848L81.3004 25H85.9077L80.3771 16.9581L85.6399 10.8182H81.125L76.5824 16.201H76.37V6.09091H72.4368V25Z" fill="white"/>
</svg>
