<svg width="792" height="792" viewBox="0 0 792 792" fill="none" xmlns="http://www.w3.org/2000/svg">
<g filter="url(#filter0_d_2_136)">
<rect x="195.535" y="254.838" width="360" height="306" rx="34" transform="rotate(-45 195.535 254.838)" fill="white"/>
</g>
<path d="M272.212 272.913L278.07 267.055L276.868 265.853L272.407 270.314L269.573 267.48L273.677 263.376L272.479 262.178L268.375 266.282L265.554 263.462L269.961 259.055L268.759 257.853L262.956 263.656L272.212 272.913ZM274.024 257.216L272.542 258.699L278.146 260.036L279.457 265.668L280.94 264.186L279.905 260.032L284.063 261.062L285.541 259.584L279.886 258.296L278.58 252.66L277.102 254.138L278.259 258.387L274.024 257.216ZM289.816 255.589C291.457 253.949 291.534 251.901 290.331 250.4L289.016 251.716C289.595 252.638 289.455 253.664 288.682 254.437C287.538 255.58 285.848 255.363 284.334 253.849C282.847 252.362 282.661 250.676 283.791 249.546C284.65 248.687 285.717 248.706 286.512 249.212L287.827 247.896C286.282 246.64 284.207 246.852 282.63 248.43C280.673 250.387 280.88 253.126 283 255.246C285.093 257.338 287.8 257.605 289.816 255.589ZM291.33 245.551C290.223 244.444 290.29 243.11 291.253 242.148C292.184 241.217 293.332 241.253 294.349 242.27L298.602 246.523L299.954 245.171L295.538 240.756C293.807 239.024 291.972 239.088 290.544 240.516C289.463 241.596 289.282 242.717 289.707 243.793L289.621 243.879L286.177 240.435L284.844 241.768L294.101 251.025L295.452 249.673L291.33 245.551ZM304.059 241.374C305.207 240.226 305.27 238.997 305.008 238.219L305.062 238.165L306.011 239.114L307.331 237.794L302.721 233.184C300.7 231.164 298.707 232.352 297.604 233.455C296.348 234.712 295.697 236.375 296.51 238.093L298.07 237.112C297.776 236.42 297.808 235.439 298.716 234.531C299.588 233.659 300.492 233.668 301.279 234.454L301.311 234.486C301.803 234.978 301.288 235.476 300.185 236.868C299.023 238.337 298.02 240.027 299.598 241.605C300.962 242.97 302.739 242.694 304.059 241.374ZM303.268 239.995C302.504 240.759 301.609 240.967 300.94 240.298C300.217 239.575 300.601 238.676 301.279 237.79C301.659 237.293 302.581 236.136 302.581 235.747L303.476 236.642C304.298 237.464 304.393 238.87 303.268 239.995ZM306.488 230.393C305.38 229.286 305.425 227.975 306.366 227.035C307.283 226.118 308.44 226.163 309.448 227.171L313.701 231.424L315.053 230.073L310.637 225.657C308.919 223.939 307.075 223.984 305.656 225.404C304.612 226.448 304.413 227.614 304.829 228.671L304.743 228.757L303.613 227.627L302.316 228.924L309.258 235.867L310.61 234.516L306.488 230.393ZM322.651 227.97C324.419 226.203 324.975 224.029 323.189 222.243L316.093 215.147L314.769 216.472L315.894 217.597L315.795 217.696C315.126 217.507 313.86 217.199 312.568 218.492C310.891 220.169 310.981 222.727 313.191 224.937C315.406 227.152 317.847 227.071 319.487 225.43C320.762 224.155 320.536 222.944 320.337 222.257L320.423 222.171L321.788 223.536C322.877 224.625 322.602 225.841 321.576 226.867C320.45 227.993 319.447 227.866 318.809 227.708L318.127 229.349C319.343 229.832 320.993 229.629 322.651 227.97ZM318.665 224.011C317.458 225.217 315.903 224.919 314.538 223.554C313.205 222.221 312.785 220.571 314.005 219.351C315.185 218.171 316.78 218.501 318.186 219.907C319.619 221.339 319.831 222.845 318.665 224.011ZM328.108 217.298C329.622 215.784 329.947 213.967 329.125 212.53L327.615 213.578C328.026 214.478 327.773 215.4 327.005 216.168C325.848 217.325 324.32 217.352 322.946 216.05L327.882 211.115L327.402 210.636C324.894 208.127 322.413 208.647 320.84 210.22C318.905 212.154 319.104 214.902 321.237 217.036C323.393 219.192 326.06 219.345 328.108 217.298ZM321.938 215.034C321.007 213.994 320.867 212.426 321.965 211.327C323.014 210.279 324.478 210.369 325.545 211.427L321.938 215.034ZM336.068 209.057L337.42 207.705L333.18 203.466C332.272 202.557 332.317 201.201 333.275 200.243C333.555 199.963 333.922 199.696 334.062 199.619L332.769 198.327C332.615 198.444 332.335 198.697 332.163 198.869C331.35 199.683 331.115 200.84 331.607 201.839L331.535 201.911L330.432 200.808L329.126 202.114L336.068 209.057ZM343.192 202.24C344.341 201.092 344.404 199.863 344.142 199.085L344.196 199.031L345.145 199.98L346.465 198.66L341.855 194.05C339.834 192.03 337.841 193.219 336.738 194.321C335.482 195.578 334.831 197.241 335.644 198.959L337.204 197.978C336.91 197.286 336.942 196.306 337.85 195.397C338.722 194.525 339.626 194.534 340.413 195.32L340.444 195.352C340.937 195.845 340.422 196.342 339.319 197.734C338.157 199.203 337.154 200.893 338.731 202.471C340.096 203.836 341.873 203.56 343.192 202.24ZM342.402 200.862C341.638 201.625 340.743 201.833 340.074 201.164C339.351 200.441 339.735 199.542 340.413 198.656C340.792 198.159 341.714 197.002 341.714 196.613L342.609 197.508C343.432 198.33 343.527 199.736 342.402 200.862ZM344.69 186.55L343.267 187.974L341.603 186.31L340.252 187.662L341.915 189.325L340.898 190.342L341.983 191.427L343 190.41L347.1 194.509C348.356 195.775 349.929 195.422 350.973 194.333C351.398 193.899 351.606 193.529 351.705 193.312L350.345 192.439C350.272 192.548 350.146 192.756 349.929 192.973C349.491 193.411 348.953 193.66 348.171 192.878L344.351 189.058L345.775 187.635L344.69 186.55ZM356.313 189.093C357.827 187.579 358.152 185.762 357.33 184.324L355.82 185.373C356.231 186.272 355.978 187.194 355.21 187.963C354.053 189.12 352.525 189.147 351.151 187.845L356.087 182.91L355.608 182.43C353.099 179.922 350.618 180.442 349.045 182.015C347.11 183.949 347.309 186.697 349.443 188.831C351.599 190.987 354.265 191.14 356.313 189.093ZM350.143 186.828C349.212 185.789 349.072 184.22 350.17 183.122C351.219 182.073 352.683 182.164 353.75 183.221L350.143 186.828ZM360.733 173.897C359.372 173.097 357.822 173.237 356.321 174.738C354.753 176.306 354.468 178.245 355.698 179.475C356.683 180.46 357.935 180.519 359.526 179.506L360.959 178.589C361.777 178.069 362.387 178.056 362.821 178.49C363.359 179.027 363.205 180.022 362.319 180.908C361.51 181.717 360.642 181.888 359.797 181.369L358.69 182.874C360.145 183.877 361.858 183.547 363.418 181.988C365.094 180.311 365.366 178.259 364.109 177.002C363.128 176.022 361.899 176.04 360.331 177.021L358.975 177.87C358.03 178.453 357.442 178.526 356.977 178.051C356.439 177.522 356.638 176.564 357.406 175.796C358.247 174.955 359.101 175.032 359.725 175.339L360.733 173.897Z" fill="#151725"/>
<path d="M414.627 118.156L418.611 122.14C419.448 122.977 419.472 124.158 418.532 125.099C417.595 126.036 416.411 126.015 415.573 125.177L411.59 121.193L410.659 122.124L414.717 126.183C416.013 127.479 417.902 127.428 419.382 125.948C420.861 124.469 420.916 122.576 419.62 121.281L415.561 117.222L414.627 118.156ZM421.987 114.039L422.885 113.141C421.869 112.18 420.278 112.336 419.025 113.59C417.786 114.828 417.545 116.485 418.609 117.549C419.468 118.408 420.585 118.296 421.845 117.573L422.773 117.043C423.608 116.558 424.334 116.265 424.882 116.814C425.485 117.417 425.307 118.39 424.515 119.182C423.798 119.899 422.882 120.177 422.155 119.559L421.221 120.493C422.399 121.551 423.954 121.376 425.337 119.993C426.787 118.544 426.859 116.946 425.813 115.901C424.702 114.789 423.279 115.349 422.303 115.94L421.544 116.386C420.938 116.745 420.07 117.16 419.483 116.567C418.958 116.043 419.049 115.175 419.808 114.415C420.516 113.707 421.351 113.536 421.987 114.039ZM430.714 114.411C432.594 112.531 432.516 110.277 430.588 108.348C428.668 106.429 426.423 106.36 424.606 108.177L422.545 110.238L428.716 116.409L430.714 114.411ZM428.834 114.664L424.29 110.12L425.363 109.048C426.713 107.698 428.216 107.809 429.672 109.265C431.133 110.726 431.257 112.242 429.849 113.649L428.834 114.664Z" fill="#151725"/>
<path d="M454.162 90.9638L456.527 88.5984C457.961 87.1641 457.895 85.8021 456.949 84.856C455.994 83.9008 454.785 84.0303 454.14 84.6089L454.08 84.5486C454.502 83.8375 454.589 82.9787 453.818 82.2073C452.905 81.2943 451.564 81.219 450.25 82.5327L447.99 84.7927L454.162 90.9638ZM454.294 89.2342L452.317 87.2575L453.695 85.8805C454.442 85.1332 455.391 85.1482 455.979 85.7358C456.497 86.2541 456.533 86.9954 455.638 87.8903L454.294 89.2342ZM451.591 86.5313L449.714 84.6541L450.986 83.3825C451.724 82.6442 452.465 82.6804 452.977 83.1926C453.574 83.7893 453.466 84.6571 452.839 85.2838L451.591 86.5313ZM461.796 83.3293C463.676 81.449 463.598 79.1951 461.67 77.2666C459.75 75.3472 457.505 75.2779 455.688 77.0949L453.627 79.1559L459.798 85.327L461.796 83.3293ZM459.916 83.5824L455.372 79.0384L456.445 77.9657C457.795 76.6158 459.298 76.7273 460.754 78.1827C462.215 79.6441 462.338 81.1597 460.931 82.5669L459.916 83.5824ZM460.076 74.3102L461.998 72.3877L467.368 77.7573L468.296 76.8292L462.927 71.4596L464.852 69.5342L464.05 68.7327L459.275 73.5086L460.076 74.3102Z" fill="#151725"/>
<path d="M439.769 95.4566L442.315 95.7394L438.072 99.9821" stroke="#00966B" stroke-linecap="round" stroke-linejoin="round"/>
<path d="M442.739 102.386L440.193 102.103L444.436 97.8608" stroke="#00966B" stroke-linecap="round" stroke-linejoin="round"/>
<path d="M312.915 317.064L510.904 119.074" stroke="#DCDAD8" stroke-dasharray="5 5"/>
<path d="M348.27 352.419L546.26 154.43" stroke="#DCDAD8" stroke-dasharray="5 5"/>
<path d="M383.625 387.774L581.615 189.785" stroke="#DCDAD8" stroke-dasharray="5 5"/>
<path d="M402.01 360.905C414.738 358.783 437.365 346.197 426.052 312.821C421.039 298.034 415.374 269.476 449.033 265.799C459.87 264.615 480.365 254.265 466.357 227.969C446.204 190.138 442.457 150.47 493.934 174.228C513.77 183.383 551.704 189.855 539.542 147.712" stroke="#B1BCB9" stroke-width="4" stroke-linecap="round"/>
<path d="M443.559 355.097L449.73 361.268L450.429 360.569L445.74 355.881L445.8 355.82L452.417 358.58L453.092 357.905L450.332 351.288L450.393 351.228L455.081 355.917L455.78 355.218L449.609 349.047L448.717 349.938L451.742 357.158L451.67 357.231L444.45 354.205L443.559 355.097ZM458.737 352.477C459.545 351.67 459.533 350.814 459.376 350.368L459.412 350.332L460.039 350.959L460.75 350.248L457.701 347.198C456.23 345.728 454.941 346.68 454.35 347.271C453.651 347.97 453.097 349.006 453.579 350.211L454.495 349.778C454.314 349.283 454.323 348.551 455.001 347.873C455.655 347.219 456.324 347.243 456.917 347.837L456.942 347.861C457.285 348.205 456.905 348.524 456.17 349.476C455.423 350.446 454.676 351.573 455.736 352.634C456.64 353.538 457.858 353.357 458.737 352.477ZM458.207 351.73C457.641 352.297 456.978 352.453 456.484 351.959C455.941 351.417 456.267 350.754 456.749 350.127C457.014 349.79 457.737 348.898 457.713 348.633L458.364 349.283C458.942 349.862 459.051 350.886 458.207 351.73ZM462.133 348.865L462.844 348.154L459.915 345.225C459.289 344.598 459.325 343.646 460 342.971C460.19 342.781 460.422 342.621 460.482 342.585L459.759 341.862C459.671 341.937 459.478 342.118 459.373 342.224C458.819 342.778 458.65 343.574 458.939 344.2L458.891 344.249L458.192 343.549L457.505 344.236L462.133 348.865Z" fill="#686A70"/>
<path d="M491 319.997L489.874 317.629L492.368 315.134L494.737 316.261L495.52 315.478L487.083 311.572L486.312 312.344L490.217 320.781L491 319.997ZM489.446 316.731L487.65 312.958L487.698 312.91L491.471 314.706L489.446 316.731ZM498.206 316.264L498.917 315.552L496.47 313.106L496.53 313.045C496.94 313.142 497.796 313.395 498.688 312.503C499.845 311.346 499.724 309.61 498.254 308.14C496.795 306.681 495.06 306.561 493.891 307.73C492.987 308.634 493.264 309.466 493.348 309.863L493.264 309.948L492.529 309.213L491.842 309.9L498.206 316.264ZM494.855 311.515C493.818 310.478 493.577 309.321 494.445 308.453C495.349 307.549 496.554 307.863 497.531 308.839C498.519 309.827 498.844 311.069 497.953 311.961C497.097 312.816 495.904 312.563 494.855 311.515ZM501.726 309.272L502.437 308.561L499.508 305.632C498.881 305.006 498.917 304.053 499.592 303.378C499.782 303.189 500.014 303.029 500.074 302.993L499.351 302.27C499.264 302.345 499.071 302.526 498.965 302.631C498.411 303.186 498.242 303.981 498.532 304.608L498.483 304.656L497.784 303.957L497.097 304.644L501.726 309.272Z" fill="#686A70"/>
<path d="M524.172 274.484L530.343 280.655L531.042 279.956L526.353 275.267L526.413 275.207L533.031 277.967L533.706 277.292L530.945 270.675L531.006 270.615L535.694 275.304L536.393 274.605L530.222 268.433L529.33 269.325L532.356 276.545L532.283 276.617L525.064 273.592L524.172 274.484ZM539.351 271.864C540.158 271.057 540.146 270.201 539.989 269.755L540.026 269.719L540.652 270.346L541.363 269.635L538.314 266.585C536.844 265.115 535.554 266.067 534.963 266.657C534.264 267.356 533.71 268.393 534.192 269.598L535.108 269.164C534.927 268.67 534.936 267.938 535.614 267.26C536.268 266.606 536.937 266.63 537.531 267.224L537.555 267.248C537.898 267.592 537.519 267.911 536.783 268.863C536.036 269.833 535.289 270.96 536.349 272.021C537.253 272.925 538.471 272.744 539.351 271.864ZM538.82 271.117C538.254 271.684 537.591 271.84 537.097 271.346C536.554 270.804 536.88 270.141 537.362 269.514C537.627 269.176 538.35 268.285 538.326 268.019L538.977 268.67C539.555 269.249 539.664 270.273 538.82 271.117ZM544.774 269.695C545.416 269.053 545.527 268.261 545.075 267.272L541.755 260.01L540.965 260.776L543.376 265.742L543.328 265.79L538.362 263.379L537.591 264.151L543.955 267.092L544.184 267.586C544.629 268.55 544.376 268.936 543.726 269.321L544.171 270.129C544.28 270.093 544.533 269.936 544.774 269.695Z" fill="#686A70"/>
<path d="M568.743 229.912L573.155 234.324C573.923 235.092 573.968 235.872 573.324 236.517C572.736 237.105 571.968 237.186 571.443 236.662L570.708 237.397C571.657 238.346 572.974 238.193 573.986 237.18C575.059 236.107 575.086 234.761 573.902 233.576L569.491 229.165L568.743 229.912ZM578.172 229.041C579.04 229.909 578.775 230.969 578.245 231.5C577.654 232.09 576.798 232.078 576.123 231.403L573.231 228.511L572.52 229.222L575.46 232.163C576.642 233.344 577.835 233.284 578.703 232.416C579.402 231.717 579.486 230.885 579.233 230.198L579.281 230.15L580.065 230.933L580.776 230.222L576.147 225.594L575.436 226.305L578.172 229.041ZM580.09 225.339C579.282 224.532 579.325 223.574 580.006 222.893C580.666 222.233 581.497 222.263 582.223 222.989L585.116 225.882L585.827 225.171L582.886 222.23C581.705 221.049 580.509 221.112 579.572 222.049C578.873 222.748 578.752 223.495 579.005 224.182L578.945 224.243L578.222 223.519L577.535 224.206L582.163 228.835L582.874 228.124L580.09 225.339Z" fill="#686A70"/>
<path d="M373.191 373.138L372.444 373.885L371.925 376.453L372.685 377.212L373.191 374.705L373.227 374.669L378.615 380.057L379.362 379.309L373.191 373.138ZM383.319 375.521C384.681 374.159 384.31 372.222 382.294 370.206C380.294 368.205 378.329 367.831 376.979 369.181C375.629 370.531 376.003 372.496 378.003 374.497C380.019 376.512 381.957 376.883 383.319 375.521ZM382.656 374.858C381.758 375.756 380.333 375.38 378.727 373.773C377.124 372.17 376.738 370.724 377.63 369.832C378.522 368.94 379.968 369.326 381.571 370.929C383.177 372.535 383.554 373.96 382.656 374.858ZM386.973 371.795C387.271 371.496 387.271 371.008 386.973 370.71C386.675 370.412 386.186 370.412 385.888 370.71C385.59 371.008 385.59 371.496 385.888 371.795C386.186 372.093 386.675 372.093 386.973 371.795ZM388.816 369.855L392.709 365.962L392.046 365.299L389.178 368.168L389.129 368.12L389.033 365.251C388.958 363.054 388.741 362.211 388.057 361.527C387.104 360.575 385.574 360.587 384.489 361.671C383.407 362.753 383.32 364.311 384.405 365.396L385.116 364.685C384.414 363.982 384.402 363.06 385.116 362.346C385.785 361.677 386.707 361.575 387.358 362.226C387.927 362.795 388.014 363.552 388.081 365.046L388.274 369.313L388.816 369.855Z" fill="#686A70"/>
<path d="M337.836 337.783L337.089 338.53L336.57 341.098L337.33 341.857L337.836 339.35L337.872 339.314L343.26 344.702L344.007 343.954L337.836 337.783ZM344.456 340.974L347.361 338.069L348.627 339.335L349.338 338.623L348.072 337.358L348.916 336.514L348.253 335.851L347.409 336.695L343.167 332.452L342.263 333.356L343.842 340.359L344.456 340.974ZM346.698 337.406L344.601 339.503L344.553 339.455L343.36 334.164L343.408 334.116L346.698 337.406ZM351.684 336.374C351.983 336.075 351.983 335.587 351.684 335.289C351.386 334.99 350.898 334.99 350.599 335.289C350.301 335.587 350.301 336.075 350.599 336.374C350.898 336.672 351.386 336.672 351.684 336.374ZM355.416 332.714C356.591 331.539 356.585 329.809 355.404 328.628C354.208 327.432 352.499 327.387 351.366 328.52C350.95 328.936 350.694 329.487 350.643 329.942L350.607 329.978L349.004 327.941L351.583 325.362L350.92 324.699L347.714 327.905L350.378 331.316L351.161 330.701C351.233 330.261 351.538 329.692 351.92 329.315C352.713 328.535 353.885 328.556 354.693 329.363C355.485 330.156 355.512 331.292 354.753 332.051C354.12 332.684 353.21 332.781 352.595 332.28L351.872 333.003C352.858 333.898 354.355 333.775 355.416 332.714Z" fill="#686A70"/>
<path d="M302.48 302.428L301.733 303.175L301.215 305.742L301.974 306.502L302.48 303.995L302.517 303.958L307.904 309.346L308.652 308.599L302.48 302.428ZM312.524 304.895C313.699 303.72 313.693 301.99 312.512 300.809C311.316 299.613 309.607 299.568 308.474 300.701C308.058 301.116 307.802 301.668 307.751 302.123L307.715 302.159L306.112 300.122L308.691 297.543L308.028 296.88L304.822 300.086L307.486 303.497L308.269 302.882C308.342 302.442 308.646 301.873 309.029 301.496C309.821 300.716 310.993 300.737 311.801 301.544C312.593 302.337 312.62 303.473 311.861 304.232C311.228 304.865 310.318 304.961 309.704 304.461L308.98 305.184C309.966 306.079 311.463 305.956 312.524 304.895ZM316.105 301.242C316.403 300.943 316.403 300.455 316.105 300.157C315.807 299.859 315.319 299.859 315.02 300.157C314.722 300.455 314.722 300.943 315.02 301.242C315.319 301.54 315.807 301.54 316.105 301.242ZM319.866 297.553C321.129 296.321 321.002 294.567 319.854 293.419C318.661 292.226 316.922 292.253 315.864 293.31C315.229 293.946 314.994 294.802 315.165 295.649L315.117 295.697C313.617 294.19 313.33 292.735 314.285 291.78C314.936 291.129 315.738 291.147 316.431 291.563L317.166 290.828C316.057 290.02 314.659 290.08 313.623 291.117C312.233 292.506 312.61 294.588 314.792 296.77C317.073 299.051 318.841 298.553 319.866 297.553ZM319.203 296.89C318.429 297.665 317.202 297.571 316.467 296.83C315.732 296.089 315.666 294.835 316.431 294.07C317.187 293.313 318.365 293.377 319.131 294.142C319.914 294.926 319.959 296.134 319.203 296.89Z" fill="#686A70"/>
<rect x="162.3" y="611.927" width="438" height="254" rx="43" transform="rotate(-45 162.3 611.927)" fill="#00966B"/>
<path d="M408.02 366.208C416.505 365.972 437.86 370.45 455.396 390.249C465.028 401.124 484.741 420.443 513.025 395.552C520.548 388.933 534.875 377.521 545.906 376.107" stroke="#00694B"/>
<path d="M390.696 383.532C399.181 383.296 430.647 387.421 457.871 420.301C467.135 431.49 487.569 443.777 515.854 418.887C524.504 411.274 551.138 394.492 562.169 393.078" stroke="#00694B"/>
<path d="M288.872 738.499L311.499 761.126C328.292 777.919 355.518 777.919 372.311 761.126L429.586 703.851C351.805 646.999 303.368 703.262 288.872 738.499Z" fill="#018761"/>
<path d="M295.467 681.776L298.054 679.188L305.399 686.532L306.395 685.536L299.051 678.192L301.638 675.604L300.754 674.721L294.583 680.892L295.467 681.776ZM312.132 680.056C313.804 678.385 313.659 675.99 311.746 674.078C309.818 672.149 307.423 672.005 305.752 673.676C304.081 675.347 304.225 677.742 306.154 679.67C308.066 681.583 310.461 681.727 312.132 680.056ZM311.28 679.204C310.011 680.474 308.339 679.96 307.102 678.722C305.865 677.485 305.334 675.797 306.604 674.528C307.873 673.258 309.561 673.788 310.798 675.026C312.036 676.263 312.55 677.935 311.28 679.204ZM312.76 666.829L311.442 668.147L309.964 666.668L309.015 667.616L310.494 669.095L309.562 670.027L310.365 670.83L311.297 669.898L315.154 673.755C316.231 674.832 317.613 674.478 318.417 673.675C318.77 673.321 318.931 673.032 319.011 672.855L317.967 672.196C317.903 672.293 317.806 672.454 317.597 672.662C317.179 673.08 316.649 673.353 315.845 672.55L312.246 668.95L313.563 667.632L312.76 666.829ZM322.318 669.902C323.395 668.826 323.379 667.685 323.17 667.09L323.218 667.042L324.054 667.877L325.002 666.929L320.936 662.863C318.975 660.903 317.256 662.172 316.468 662.96C315.536 663.892 314.797 665.274 315.44 666.881L316.661 666.303C316.42 665.644 316.432 664.667 317.336 663.763C318.208 662.892 319.1 662.924 319.891 663.715L319.923 663.747C320.381 664.205 319.875 664.631 318.895 665.901C317.898 667.194 316.902 668.697 318.316 670.111C319.522 671.317 321.145 671.075 322.318 669.902ZM321.611 668.906C320.855 669.661 319.972 669.87 319.313 669.211C318.59 668.488 319.023 667.604 319.666 666.769C320.02 666.319 320.984 665.129 320.952 664.776L321.82 665.644C322.591 666.415 322.736 667.781 321.611 668.906ZM319.452 656.022L318.504 656.971L326.732 665.199L327.68 664.251L319.452 656.022ZM332.728 659.203L333.644 658.287L332.696 657.339L332.808 657.227C333.354 657.355 334.495 657.693 335.685 656.503C337.227 654.961 337.067 652.647 335.106 650.686C333.162 648.741 330.847 648.581 329.289 650.14C328.083 651.345 328.453 652.454 328.565 652.984L328.485 653.064L325.448 650.027L324.499 650.975L332.728 659.203ZM330.574 655.186C329.192 653.804 328.871 652.261 330.028 651.104C331.233 649.898 332.84 650.316 334.142 651.618C335.46 652.936 335.894 654.591 334.704 655.78C333.563 656.921 331.972 656.584 330.574 655.186ZM341.587 650.634C342.663 649.557 342.647 648.416 342.438 647.821L342.487 647.773L343.322 648.609L344.27 647.661L340.204 643.595C338.244 641.634 336.524 642.904 335.737 643.691C334.805 644.623 334.066 646.005 334.708 647.612L335.93 647.034C335.689 646.375 335.701 645.399 336.605 644.495C337.477 643.623 338.368 643.655 339.16 644.446L339.192 644.479C339.65 644.937 339.144 645.363 338.164 646.632C337.167 647.926 336.171 649.428 337.585 650.843C338.79 652.048 340.413 651.807 341.587 650.634ZM340.879 649.637C340.124 650.393 339.24 650.602 338.581 649.943C337.858 649.219 338.292 648.336 338.935 647.5C339.288 647.05 340.253 645.861 340.221 645.507L341.088 646.375C341.86 647.146 342.004 648.512 340.879 649.637ZM338.721 636.754L337.773 637.702L346.001 645.93L346.949 644.982L338.721 636.754ZM350.646 641.574C351.723 640.497 351.707 639.356 351.498 638.762L351.546 638.713L352.382 639.549L353.33 638.601L349.264 634.535C347.304 632.574 345.584 633.844 344.797 634.631C343.865 635.563 343.125 636.946 343.768 638.553L344.99 637.974C344.748 637.315 344.761 636.339 345.664 635.435C346.536 634.563 347.428 634.595 348.22 635.387L348.252 635.419C348.71 635.877 348.204 636.303 347.223 637.572C346.227 638.866 345.231 640.369 346.645 641.783C347.85 642.988 349.473 642.747 350.646 641.574ZM349.939 640.577C349.184 641.333 348.3 641.542 347.641 640.883C346.918 640.16 347.352 639.276 347.995 638.44C348.348 637.99 349.313 636.801 349.28 636.447L350.148 637.315C350.92 638.087 351.064 639.453 349.939 640.577ZM352.297 632.21C351.22 631.133 351.276 629.855 352.184 628.947C353.064 628.068 354.173 628.108 355.141 629.076L358.998 632.933L359.946 631.985L356.025 628.064C354.45 626.489 352.855 626.573 351.606 627.822C350.673 628.755 350.513 629.751 350.85 630.667L350.77 630.747L349.806 629.783L348.89 630.699L355.061 636.87L356.009 635.922L352.297 632.21ZM364.314 627.874C365.68 626.508 365.745 624.772 364.813 623.519L363.864 624.467C364.363 625.318 364.202 626.283 363.463 627.022C362.338 628.147 360.682 627.938 359.252 626.508C357.854 625.11 357.677 623.454 358.786 622.345C359.622 621.51 360.634 621.526 361.341 621.944L362.29 620.995C360.972 619.999 359.22 620.208 357.918 621.51C356.247 623.181 356.456 625.608 358.336 627.488C360.184 629.336 362.579 629.609 364.314 627.874ZM370.715 621.474C371.968 620.22 372.257 618.677 371.615 617.456L370.441 618.115C370.843 618.999 370.606 619.879 369.863 620.622C368.75 621.735 367.263 621.783 365.897 620.505L370.377 616.026L369.975 615.624C367.677 613.326 365.524 613.904 364.238 615.19C362.567 616.861 362.776 619.288 364.672 621.184C366.568 623.081 368.931 623.257 370.715 621.474ZM365.078 619.686C364.182 618.661 364.005 617.126 365.09 616.042C366.118 615.013 367.549 615.126 368.593 616.17L365.078 619.686Z" fill="white"/>
<path d="M344.951 720.133L346.548 718.536L344.83 716.804C347.828 713.338 347.904 709.708 345.388 707.176C342.706 704.51 339.278 705.497 336.408 707.267L335.783 707.636L331.512 703.304C332.928 702.31 334.427 702.257 335.632 703.222L338.322 700.532C335.881 698.182 332.25 698.317 329.131 700.894L327.383 699.131L325.786 700.728L327.534 702.491C324.995 705.602 324.694 709.369 327.195 711.854C329.41 714.069 332.257 713.768 335.451 711.885L336.303 711.38L340.83 715.968C339.271 717.105 337.531 717.308 336.069 716.043L333.32 718.792C336.25 721.512 339.873 721.248 343.233 718.401L344.951 720.133ZM342.427 714.371L338.322 710.205C340.092 709.233 341.493 708.886 342.57 709.949C343.678 711.071 343.58 712.766 342.427 714.371ZM333.779 708.826C332.408 709.534 330.909 709.934 329.854 708.849C328.89 707.869 328.867 706.385 329.915 704.901L333.779 708.826ZM352.06 709.167L362.636 698.591L360.301 696.255L353.582 702.975L353.476 702.869L353.431 697.506C353.552 691.63 352.979 689.4 351.239 687.66C348.655 685.076 344.663 685.287 341.559 688.391C338.5 691.449 338.229 695.517 341.16 698.447L343.819 695.788C342.244 694.214 342.252 692.233 343.789 690.696C345.258 689.227 347.246 689.031 348.7 690.485C349.988 691.773 350.124 693.476 350.147 696.542L350.041 707.148L352.06 709.167ZM365.8 695.427L368.701 692.526L362.215 672.933L359.827 670.545L349.318 681.054L351.653 683.389L359.269 675.773L359.375 675.878L365.8 695.427ZM376.157 680.852L373.746 683.263L374.537 684.159C376.45 686.329 377.995 688.943 378.688 690.073L380.526 688.234C379.938 686.924 378.575 683.888 376.887 681.779L376.157 680.852ZM386.686 675.129C390.415 671.415 389.699 666.255 384.637 661.192C379.605 656.16 374.46 655.49 370.753 659.196C367.047 662.903 367.718 668.033 372.75 673.08C377.804 678.134 382.965 678.85 386.686 675.129ZM384.328 672.771C382.407 674.692 379.273 673.969 375.575 670.255C371.906 666.571 371.168 663.437 373.081 661.524C375.002 659.603 378.136 660.341 381.82 664.01C385.526 667.716 386.257 670.842 384.328 672.771ZM400.835 660.98C404.564 657.266 403.848 652.106 398.786 647.043C393.754 642.011 388.609 641.341 384.902 645.047C381.196 648.753 381.867 653.884 386.899 658.931C391.953 663.985 397.114 664.701 400.835 660.98ZM398.477 658.622C396.556 660.543 393.422 659.82 389.724 656.106C386.055 652.422 385.317 649.288 387.23 647.375C389.151 645.454 392.285 646.192 395.969 649.861C399.675 653.567 400.406 656.693 398.477 658.622ZM414.984 646.831C418.713 643.117 417.997 637.957 412.935 632.894C407.903 627.862 402.758 627.192 399.051 630.898C395.345 634.604 396.016 639.734 401.048 644.782C406.102 649.836 411.263 650.552 414.984 646.831ZM412.626 644.473C410.705 646.394 407.571 645.671 403.873 641.957C400.204 638.273 399.466 635.139 401.379 633.226C403.3 631.305 406.434 632.043 410.118 635.712C413.824 639.418 414.555 642.544 412.626 644.473ZM424.412 637.147C425.301 636.258 425.323 634.759 424.412 633.832C423.5 632.936 422.001 632.958 421.112 633.847C420.193 634.766 420.186 636.25 421.097 637.147C422.009 638.073 423.493 638.066 424.412 637.147ZM433.918 627.73C437.218 624.431 437.73 620.137 435.116 617.538C433.195 615.602 430.604 615.421 428.133 617.275L428.012 617.154C429.323 615.12 429.203 612.755 427.463 611.03C425.12 608.672 421.195 608.755 418.114 611.836C415.116 614.834 414.581 618.939 417.105 621.583L419.794 618.894C418.543 617.553 418.943 615.542 420.366 614.118C421.805 612.679 423.636 612.596 424.924 613.9C426.28 615.241 426.061 617.252 424.464 618.849L423.101 620.212L425.255 622.367L426.619 621.003C428.57 619.052 430.709 618.872 432.095 620.273C433.466 621.629 433.218 623.745 431.568 625.395C430.016 626.947 428.012 627.339 426.687 626.149L423.854 628.981C426.536 631.512 430.664 630.985 433.918 627.73ZM447.985 613.83C451.713 610.116 450.998 604.956 445.936 599.894C440.903 594.862 435.758 594.191 432.052 597.898C428.346 601.604 429.016 606.734 434.048 611.781C439.103 616.836 444.263 617.551 447.985 613.83ZM445.627 611.472C443.706 613.393 440.572 612.67 436.873 608.956C433.205 605.272 432.466 602.139 434.38 600.225C436.301 598.304 439.435 599.043 443.118 602.711C446.824 606.417 447.555 609.544 445.627 611.472Z" fill="white"/>
<path d="M267.794 606.146L263.18 610.759L248.344 590.156L252.958 585.543L267.794 606.146ZM241.58 596.921L249.369 613.506L246.224 611.402L246.226 611.403L236.705 604.987C236.705 604.987 234.922 603.579 232.921 605.579L225.65 612.85L225.865 613.236C225.865 613.236 228.551 611.475 232.716 610.435L252.118 621.822L256.925 617.015L246.545 591.956L241.58 596.921ZM295.585 578.354L299.821 574.118L278.408 560.091L274.7 563.8C272.987 565.512 273.89 567.25 273.89 567.25L283.41 590.53L288.219 585.721L286.548 582.127L292.413 576.262L295.585 578.354ZM284.241 577.163L280.034 568.107L288.029 573.375L284.241 577.163ZM270.312 576.711L267.165 572.247C267.165 572.247 264.361 573.506 262.243 575.624C259.954 577.913 255.518 584.351 260.383 589.216C264.961 593.794 271.399 587.47 273.803 589.874C276.208 592.279 270.054 597.571 266.648 597.944L269.941 602.609C269.941 602.609 273.002 601.549 276.149 598.402C279.297 595.254 282.417 588.874 277.98 584.438C273.373 579.831 266.506 585.84 264.503 583.837C262.5 581.833 267.25 577.597 270.312 576.711Z" fill="white"/>
<path d="M246.226 611.403L236.705 604.987C236.705 604.987 234.922 603.579 232.921 605.58L225.65 612.851L225.865 613.236C225.865 613.236 230.084 610.466 236.149 609.827C241.948 609.216 246.226 611.403 246.226 611.403Z" fill="#EDEDED"/>
<rect x="514.439" y="429.494" width="258" height="102" rx="18" transform="rotate(-45 514.439 429.494)" fill="white"/>
<path d="M632.527 455.657L756.27 331.913C763.3 324.884 763.3 313.487 756.27 306.457L732.936 283.123C737.178 294.719 713.255 305.632 700.762 309.639C673.61 318.69 675.307 350.18 679.549 364.794C686.62 396.755 664.582 408.281 652.679 410.049C634.86 418.817 631.819 444.108 632.527 455.657Z" fill="#EBFFF9"/>
<path d="M632.526 455.657C631.819 444.108 634.86 418.817 652.679 410.049C664.053 404.452 686.62 396.755 679.549 364.794C676.346 350.319 673.609 318.691 700.762 309.64C712.96 305.574 737.178 294.72 732.936 283.123" stroke="#00966B" stroke-width="2"/>
<path d="M567.306 444.51L568.481 443.335L564.395 431.005L563.347 429.956L557.416 435.886L558.411 436.881L563.184 432.108L563.256 432.18L567.306 444.51ZM577.183 434.886C578.946 433.123 578.937 430.529 577.165 428.757C575.37 426.963 572.808 426.895 571.108 428.595C570.485 429.218 570.1 430.045 570.023 430.728L569.969 430.782L567.565 427.727L571.434 423.858L570.439 422.863L565.63 427.673L569.626 432.789L570.801 431.867C570.909 431.207 571.366 430.353 571.94 429.788C573.129 428.617 574.887 428.649 576.098 429.86C577.287 431.049 577.328 432.753 576.189 433.892C575.239 434.841 573.874 434.986 572.952 434.235L571.868 435.32C573.346 436.663 575.592 436.477 577.183 434.886ZM584.89 423.454C585.903 424.467 587.385 424.684 588.561 423.509C589.718 422.352 589.501 420.869 588.488 419.857L588 419.368C586.988 418.356 585.523 418.121 584.348 419.296C583.191 420.453 583.39 421.954 584.402 422.966L584.89 423.454ZM574.983 422.767C575.995 423.78 577.478 423.997 578.653 422.822C579.81 421.665 579.593 420.182 578.581 419.17L578.093 418.681C577.08 417.669 575.616 417.434 574.441 418.609C573.283 419.766 573.482 421.267 574.495 422.279L574.983 422.767ZM582.359 429.457L583.39 428.426L580.497 412.806L579.467 413.836L582.359 429.457ZM585.324 422.044C584.764 421.484 584.493 420.706 585.125 420.074C585.776 419.423 586.518 419.73 587.078 420.29L587.566 420.779C588.127 421.339 588.416 422.098 587.783 422.731C587.132 423.382 586.373 423.093 585.812 422.532L585.324 422.044ZM575.417 421.357C574.856 420.797 574.585 420.019 575.218 419.387C575.869 418.736 576.61 419.043 577.171 419.603L577.659 420.092C578.219 420.652 578.508 421.411 577.876 422.044C577.225 422.695 576.465 422.406 575.905 421.845L575.417 421.357ZM584.25 455.85C587.071 453.03 586.998 449.613 584.106 446.72C581.222 443.836 577.814 443.773 575.057 446.53L571.857 449.73L581.114 458.987L584.25 455.85ZM581.34 455.859L574.985 449.504L576.413 448.076C578.293 446.196 580.323 446.263 582.442 448.383C584.571 450.512 584.648 452.55 582.718 454.48L581.34 455.859ZM593.473 446.898C595.091 445.28 595.412 443.377 594.495 441.881L592.795 443.237C593.161 444.046 592.926 444.896 592.221 445.601C591.163 446.659 589.767 446.663 588.565 445.488L593.401 440.652L592.899 440.15C590.463 437.714 587.927 438.107 586.219 439.816C584.23 441.805 584.393 444.562 586.535 446.704C588.714 448.883 591.38 448.991 593.473 446.898ZM587.466 444.381C586.63 443.445 586.54 442.044 587.516 441.068C588.456 440.128 589.776 440.182 590.73 441.117L587.466 444.381ZM600.412 444.895L602.048 443.259L598.351 439.562L598.419 439.494C599.183 439.742 600.43 439.914 601.624 438.721C603.26 437.085 603.187 434.563 600.9 432.276C598.586 429.961 596.069 429.966 594.464 431.57C593.239 432.795 593.465 434.043 593.718 434.793L593.623 434.888L592.475 433.74L590.866 435.349L600.412 444.895ZM595.942 437.216C594.595 435.869 594.301 434.418 595.355 433.365C596.444 432.276 597.931 432.642 599.224 433.934C600.525 435.236 600.905 436.755 599.825 437.835C598.781 438.879 597.289 438.563 595.942 437.216ZM608.928 431.444C610.962 429.41 610.821 426.684 608.675 424.538C606.523 422.386 603.793 422.241 601.759 424.275C599.725 426.309 599.87 429.039 602.021 431.191C604.168 433.338 606.894 433.478 608.928 431.444ZM607.626 430.124C606.501 431.25 604.946 430.798 603.676 429.527C602.406 428.257 601.94 426.689 603.065 425.564C604.173 424.456 605.741 424.922 607.011 426.192C608.281 427.462 608.733 429.017 607.626 430.124ZM613.887 415.998C612.486 415.049 610.796 415.239 609.168 416.866C607.496 418.539 607.18 420.5 608.468 421.779C609.476 422.796 610.768 422.841 612.377 421.784L613.81 420.848C614.588 420.351 615.144 420.31 615.537 420.704C616.011 421.178 615.853 422.05 615.076 422.828C614.326 423.578 613.512 423.741 612.748 423.257L611.306 425.006C612.784 426.078 614.61 425.761 616.314 424.057C618.05 422.322 618.375 420.197 617.065 418.878C616.07 417.892 614.827 417.924 613.232 418.95L611.794 419.881C610.931 420.428 610.407 420.464 610.009 420.057C609.534 419.592 609.729 418.746 610.411 418.064C611.166 417.309 611.975 417.323 612.558 417.653L613.887 415.998ZM620.493 419.607L622.129 417.971L615.187 411.029L613.55 412.665L620.493 419.607ZM613.388 410.857C613.907 410.337 613.935 409.515 613.446 409.026C612.954 408.534 612.131 408.561 611.611 409.081C611.087 409.605 611.06 410.428 611.553 410.92C612.041 411.408 612.863 411.381 613.388 410.857ZM620.336 405.88L618.966 407.249L617.303 405.586L615.667 407.222L617.33 408.885L616.345 409.871L617.61 411.136L618.596 410.151L622.456 414.011C623.753 415.326 625.344 415.019 626.537 413.753C626.989 413.274 627.22 412.863 627.337 412.628L625.782 411.624C625.714 411.737 625.57 411.963 625.366 412.167C624.955 412.578 624.481 412.763 623.821 412.103L620.232 408.515L621.601 407.145L620.336 405.88ZM631.781 408.59C633.399 406.972 633.72 405.069 632.803 403.573L631.103 404.929C631.469 405.738 631.234 406.588 630.529 407.293C629.472 408.351 628.075 408.355 626.873 407.18L631.709 402.344L631.207 401.842C628.771 399.406 626.235 399.799 624.527 401.508C622.538 403.496 622.701 406.254 624.843 408.396C627.022 410.575 629.689 410.683 631.781 408.59ZM625.774 406.073C624.938 405.137 624.848 403.736 625.824 402.76C626.764 401.82 628.084 401.874 629.038 402.809L625.774 406.073Z" fill="#151725"/>
<circle cx="641.719" cy="374.34" r="13" transform="rotate(-45 641.719 374.34)" fill="#B3DFD3"/>
<path d="M638.745 376.316L638.89 371.511M638.89 371.511L643.694 371.366M638.89 371.511L644.547 377.168" stroke="#00966B" stroke-linecap="round" stroke-linejoin="round"/>
<circle cx="680.61" cy="326.964" r="7.5" transform="rotate(-45 680.61 326.964)" fill="#FBD04A" stroke="#EB001B"/>
<rect x="121.288" y="404.038" width="124" height="68" rx="18" transform="rotate(-45 121.288 404.038)" fill="#FBD04A"/>
<path d="M180.257 394.953L171.257 385.953L171.834 385.376L180.833 394.376L180.257 394.953ZM175.852 386.941C175.482 386.646 175.069 386.542 174.614 386.631C174.157 386.718 173.723 386.968 173.31 387.38C173.015 387.676 172.806 387.978 172.684 388.287C172.56 388.594 172.519 388.888 172.561 389.17C172.604 389.446 172.727 389.686 172.931 389.89C173.102 390.061 173.289 390.169 173.493 390.214C173.699 390.256 173.91 390.254 174.126 390.207C174.341 390.155 174.554 390.081 174.762 389.985C174.968 389.887 175.159 389.785 175.335 389.679L176.221 389.159C176.507 388.986 176.819 388.826 177.156 388.681C177.494 388.536 177.844 388.438 178.207 388.389C178.571 388.34 178.931 388.368 179.29 388.474C179.651 388.577 179.993 388.79 180.317 389.113C180.724 389.521 180.981 389.989 181.086 390.516C181.194 391.041 181.14 391.594 180.925 392.175C180.711 392.754 180.324 393.325 179.761 393.887C179.222 394.426 178.67 394.807 178.105 395.03C177.541 395.253 176.99 395.318 176.453 395.227C175.914 395.133 175.416 394.881 174.959 394.471L176.049 393.381C176.33 393.62 176.631 393.753 176.952 393.778C177.273 393.799 177.592 393.736 177.908 393.589C178.225 393.436 178.522 393.221 178.801 392.942C179.108 392.635 179.333 392.314 179.476 391.978C179.619 391.639 179.673 391.313 179.638 391.001C179.601 390.687 179.465 390.413 179.23 390.179C179.017 389.965 178.781 389.852 178.524 389.838C178.268 389.821 177.993 389.872 177.698 389.989C177.405 390.104 177.095 390.256 176.769 390.446L175.687 391.064C174.953 391.484 174.265 391.71 173.623 391.743C172.983 391.773 172.413 391.538 171.911 391.036C171.496 390.621 171.247 390.147 171.162 389.613C171.078 389.078 171.142 388.533 171.356 387.978C171.567 387.42 171.913 386.9 172.396 386.417C172.884 385.93 173.399 385.585 173.943 385.383C174.489 385.18 175.02 385.12 175.536 385.204C176.049 385.286 176.503 385.516 176.9 385.893L175.852 386.941ZM183.506 389.903L182.718 389.116L182.631 384.156C182.617 383.621 182.591 383.167 182.553 382.792C182.516 382.412 182.445 382.086 182.342 381.814C182.239 381.543 182.082 381.301 181.871 381.09C181.632 380.851 181.37 380.701 181.084 380.64C180.796 380.577 180.507 380.596 180.219 380.697C179.928 380.795 179.661 380.966 179.417 381.21C179.16 381.468 178.987 381.745 178.901 382.043C178.814 382.341 178.815 382.637 178.904 382.932C178.993 383.228 179.167 383.504 179.424 383.762L178.387 384.799C177.949 384.361 177.667 383.877 177.54 383.347C177.414 382.818 177.436 382.287 177.607 381.755C177.776 381.22 178.084 380.729 178.532 380.282C178.984 379.829 179.473 379.521 179.998 379.357C180.522 379.188 181.037 379.161 181.541 379.276C182.042 379.389 182.486 379.638 182.873 380.025C183.14 380.292 183.351 380.604 183.506 380.96C183.663 381.314 183.775 381.771 183.843 382.331C183.909 382.889 183.945 383.61 183.952 384.493L184.019 387.422L184.072 387.474L187.313 384.233L188.245 385.165L183.506 389.903ZM190.35 383.192C190.158 383.385 189.925 383.482 189.651 383.484C189.374 383.484 189.139 383.387 188.944 383.192C188.752 383 188.657 382.767 188.66 382.493C188.66 382.216 188.756 381.982 188.948 381.79C189.14 381.598 189.374 381.502 189.651 381.502C189.925 381.499 190.158 381.594 190.35 381.786C190.479 381.915 190.565 382.066 190.607 382.24C190.649 382.409 190.649 382.577 190.607 382.746C190.565 382.915 190.479 383.064 190.35 383.192ZM187.042 371.968L194.242 379.167L193.152 380.257L187.042 374.147L187 374.189L186.403 377.037L185.362 375.996L185.984 373.026L187.042 371.968ZM196.19 377.22L195.402 376.432L195.314 371.472C195.3 370.938 195.274 370.483 195.237 370.108C195.199 369.728 195.129 369.403 195.026 369.131C194.923 368.859 194.766 368.617 194.555 368.407C194.316 368.167 194.053 368.017 193.768 367.957C193.479 367.893 193.191 367.912 192.903 368.013C192.612 368.111 192.345 368.282 192.101 368.526C191.843 368.784 191.671 369.062 191.584 369.359C191.498 369.657 191.499 369.953 191.588 370.249C191.677 370.544 191.85 370.82 192.108 371.078L191.071 372.115C190.633 371.677 190.35 371.193 190.224 370.663C190.097 370.134 190.12 369.603 190.291 369.071C190.459 368.537 190.768 368.046 191.215 367.598C191.668 367.146 192.156 366.837 192.681 366.673C193.206 366.505 193.721 366.478 194.225 366.593C194.726 366.705 195.17 366.955 195.557 367.341C195.824 367.609 196.035 367.92 196.19 368.276C196.347 368.63 196.459 369.087 196.527 369.647C196.593 370.205 196.629 370.926 196.636 371.809L196.703 374.738L196.756 374.791L199.997 371.549L200.928 372.481L196.19 377.22ZM204.887 368.762C204.329 369.315 203.708 369.643 203.024 369.746C202.339 369.849 201.615 369.727 200.851 369.38C200.087 369.033 199.314 368.469 198.531 367.686C197.751 366.905 197.188 366.134 196.844 365.373C196.501 364.609 196.382 363.884 196.485 363.2C196.59 362.513 196.919 361.895 197.469 361.344C198.02 360.793 198.639 360.467 199.325 360.367C200.01 360.264 200.733 360.384 201.494 360.729C202.256 361.069 203.027 361.629 203.808 362.409C204.593 363.194 205.159 363.969 205.506 364.733C205.85 365.495 205.972 366.219 205.871 366.905C205.768 367.59 205.44 368.208 204.887 368.762ZM203.948 367.823C204.436 367.335 204.579 366.717 204.377 365.967C204.178 365.214 203.628 364.388 202.728 363.488C202.131 362.891 201.562 362.449 201.023 362.163C200.484 361.872 199.991 361.738 199.543 361.759C199.096 361.775 198.711 361.944 198.39 362.265C197.905 362.75 197.763 363.37 197.965 364.125C198.166 364.879 198.715 365.707 199.61 366.607C200.21 367.207 200.78 367.652 201.319 367.942C201.858 368.228 202.35 368.362 202.795 368.343C203.238 368.322 203.622 368.149 203.948 367.823Z" fill="#141623"/>
<path d="M185.297 400.326C185.07 400.146 184.814 400.086 184.53 400.145C184.246 400.204 183.98 400.358 183.731 400.607C183.548 400.789 183.418 400.978 183.341 401.173C183.264 401.368 183.24 401.554 183.266 401.734C183.295 401.912 183.374 402.067 183.506 402.198C183.615 402.308 183.736 402.376 183.867 402.403C183.998 402.427 184.132 402.424 184.267 402.393C184.401 402.361 184.53 402.316 184.655 402.258C184.778 402.199 184.888 402.142 184.984 402.085L185.514 401.78C185.65 401.701 185.808 401.621 185.988 401.539C186.171 401.456 186.365 401.397 186.571 401.362C186.777 401.325 186.986 401.333 187.198 401.386C187.409 401.44 187.612 401.563 187.804 401.756C188.027 401.978 188.169 402.237 188.232 402.533C188.297 402.828 188.27 403.139 188.154 403.467C188.039 403.794 187.823 404.116 187.507 404.432C187.212 404.726 186.91 404.934 186.599 405.054C186.29 405.174 185.988 405.21 185.695 405.163C185.403 405.115 185.137 404.986 184.896 404.777L185.41 404.263C185.579 404.405 185.759 404.481 185.952 404.492C186.145 404.5 186.337 404.458 186.527 404.367C186.717 404.274 186.894 404.145 187.057 403.982C187.247 403.792 187.387 403.59 187.477 403.377C187.565 403.163 187.598 402.956 187.575 402.756C187.551 402.555 187.464 402.38 187.314 402.23C187.178 402.093 187.028 402.02 186.866 402.011C186.704 402.002 186.534 402.032 186.356 402.103C186.178 402.174 185.996 402.262 185.812 402.367L185.161 402.728C184.747 402.957 184.361 403.08 184.002 403.096C183.643 403.112 183.325 402.981 183.048 402.704C182.817 402.474 182.679 402.211 182.632 401.915C182.585 401.616 182.62 401.313 182.736 401.007C182.853 400.697 183.042 400.411 183.305 400.149C183.57 399.884 183.853 399.696 184.154 399.584C184.454 399.472 184.746 399.437 185.03 399.48C185.315 399.521 185.565 399.643 185.78 399.844L185.297 400.326ZM189.74 402.054L185.626 397.94L188.109 395.457L188.551 395.899L186.566 397.883L187.957 399.274L189.813 397.417L190.255 397.859L188.399 399.715L189.797 401.114L191.814 399.097L192.255 399.539L189.74 402.054ZM193.603 392.534L193.105 393.032C192.932 392.918 192.755 392.844 192.573 392.809C192.392 392.773 192.213 392.77 192.035 392.801C191.856 392.829 191.686 392.887 191.522 392.976C191.359 393.064 191.209 393.177 191.072 393.313C190.823 393.562 190.66 393.851 190.584 394.179C190.509 394.506 190.535 394.851 190.66 395.216C190.788 395.579 191.029 395.938 191.386 396.294C191.742 396.651 192.101 396.892 192.464 397.02C192.829 397.146 193.174 397.171 193.501 397.096C193.829 397.02 194.118 396.857 194.367 396.608C194.503 396.471 194.616 396.321 194.704 396.158C194.793 395.994 194.852 395.824 194.881 395.648C194.91 395.468 194.907 395.288 194.871 395.107C194.835 394.924 194.76 394.746 194.648 394.575L195.146 394.077C195.319 394.324 195.439 394.581 195.506 394.846C195.573 395.111 195.591 395.376 195.56 395.64C195.528 395.902 195.45 396.155 195.327 396.399C195.205 396.641 195.04 396.866 194.833 397.074C194.482 397.425 194.084 397.651 193.64 397.753C193.195 397.855 192.736 397.826 192.264 397.666C191.791 397.507 191.337 397.21 190.904 396.777C190.47 396.343 190.173 395.889 190.014 395.417C189.854 394.944 189.825 394.485 189.927 394.041C190.029 393.596 190.255 393.198 190.606 392.847C190.814 392.64 191.039 392.475 191.281 392.353C191.525 392.23 191.779 392.153 192.043 392.122C192.305 392.09 192.569 392.107 192.834 392.174C193.098 392.24 193.354 392.36 193.603 392.534ZM195.823 387.743L196.321 387.245L199.045 389.969C199.326 390.25 199.511 390.568 199.599 390.921C199.688 391.272 199.676 391.631 199.563 391.998C199.449 392.364 199.231 392.708 198.908 393.031C198.585 393.353 198.241 393.572 197.876 393.685C197.509 393.798 197.149 393.811 196.797 393.724C196.445 393.634 196.128 393.448 195.847 393.167L193.123 390.443L193.621 389.945L196.305 392.629C196.506 392.83 196.729 392.964 196.974 393.033C197.217 393.1 197.466 393.096 197.719 393.023C197.972 392.946 198.213 392.794 198.442 392.565C198.671 392.336 198.824 392.094 198.9 391.841C198.975 391.587 198.979 391.339 198.91 391.096C198.842 390.851 198.707 390.628 198.506 390.427L195.823 387.743ZM201.43 390.364L197.316 386.25L198.706 384.86C199.027 384.539 199.346 384.33 199.662 384.233C199.977 384.136 200.279 384.132 200.568 384.223C200.857 384.314 201.123 384.481 201.366 384.724C201.608 384.966 201.773 385.231 201.862 385.517C201.95 385.804 201.945 386.103 201.848 386.415C201.749 386.726 201.54 387.04 201.221 387.359L200.096 388.484L199.646 388.034L200.755 386.925C200.974 386.706 201.119 386.497 201.189 386.299C201.26 386.099 201.266 385.91 201.209 385.732C201.151 385.551 201.04 385.378 200.875 385.214C200.711 385.049 200.536 384.936 200.351 384.874C200.166 384.813 199.973 384.816 199.771 384.884C199.567 384.951 199.354 385.096 199.132 385.318L198.256 386.194L201.928 389.866L201.43 390.364ZM201.518 386.58L204.379 387.415L203.8 387.994L200.956 387.142L201.518 386.58ZM205.048 386.746L200.934 382.632L203.417 380.149L203.859 380.591L201.874 382.576L203.264 383.966L205.121 382.11L205.562 382.552L203.706 384.408L205.104 385.806L207.121 383.789L207.563 384.231L205.048 386.746ZM209.699 382.096L208.429 383.365L204.315 379.251L205.641 377.925C206.04 377.526 206.464 377.267 206.912 377.148C207.36 377.027 207.812 377.045 208.27 377.2C208.727 377.354 209.168 377.644 209.594 378.07C210.023 378.498 210.315 378.944 210.472 379.406C210.627 379.866 210.642 380.326 210.516 380.784C210.389 381.24 210.116 381.678 209.699 382.096ZM208.485 382.425L209.225 381.686C209.565 381.346 209.781 380.998 209.873 380.643C209.966 380.288 209.946 379.935 209.813 379.583C209.681 379.23 209.447 378.887 209.112 378.552C208.78 378.22 208.44 377.988 208.092 377.857C207.742 377.724 207.395 377.702 207.051 377.789C206.705 377.874 206.372 378.078 206.051 378.399L205.255 379.195L208.485 382.425ZM214.086 377.708L209.972 373.594L212.439 371.127L212.881 371.569L210.912 373.538L212.302 374.928L214.086 373.144L214.528 373.586L212.744 375.37L214.584 377.21L214.086 377.708ZM215.992 367.574L216.49 367.076L219.214 369.8C219.495 370.081 219.68 370.399 219.768 370.752C219.857 371.103 219.845 371.462 219.732 371.829C219.618 372.195 219.4 372.539 219.077 372.861C218.755 373.184 218.41 373.403 218.045 373.516C217.678 373.629 217.318 373.642 216.966 373.555C216.614 373.465 216.297 373.279 216.016 372.998L213.292 370.274L213.79 369.776L216.474 372.46C216.675 372.661 216.898 372.795 217.143 372.864C217.387 372.93 217.635 372.927 217.888 372.853C218.141 372.777 218.382 372.624 218.611 372.395C218.84 372.166 218.993 371.925 219.069 371.672C219.144 371.418 219.148 371.169 219.079 370.927C219.011 370.682 218.876 370.459 218.676 370.258L215.992 367.574ZM220.747 362.819L224.861 366.933L224.379 367.415L218.907 366.427L218.867 366.467L222.097 369.697L221.599 370.195L217.485 366.081L217.967 365.599L223.455 366.587L223.495 366.547L220.257 363.309L220.747 362.819ZM227.128 364.666L225.858 365.936L221.744 361.822L223.07 360.496C223.469 360.097 223.893 359.838 224.341 359.719C224.789 359.598 225.241 359.616 225.699 359.771C226.156 359.925 226.597 360.215 227.023 360.641C227.452 361.069 227.744 361.515 227.901 361.977C228.056 362.437 228.071 362.897 227.945 363.355C227.818 363.811 227.546 364.249 227.128 364.666ZM225.914 364.996L226.654 364.257C226.994 363.917 227.21 363.569 227.302 363.214C227.395 362.859 227.375 362.506 227.242 362.153C227.11 361.801 226.876 361.458 226.541 361.123C226.209 360.791 225.869 360.559 225.521 360.428C225.171 360.295 224.824 360.273 224.48 360.36C224.135 360.445 223.801 360.649 223.48 360.97L222.684 361.766L225.914 364.996ZM229.088 356.535C228.861 356.355 228.605 356.295 228.321 356.354C228.037 356.413 227.771 356.567 227.521 356.816C227.339 356.998 227.209 357.187 227.132 357.382C227.055 357.577 227.031 357.763 227.057 357.943C227.086 358.121 227.165 358.276 227.296 358.407C227.406 358.517 227.527 358.585 227.658 358.612C227.789 358.636 227.923 358.633 228.058 358.602C228.192 358.57 228.321 358.525 228.445 358.467C228.569 358.408 228.679 358.351 228.775 358.294L229.305 357.989C229.441 357.91 229.599 357.83 229.779 357.748C229.961 357.665 230.156 357.606 230.362 357.571C230.568 357.534 230.777 357.542 230.989 357.595C231.2 357.649 231.402 357.772 231.595 357.965C231.818 358.187 231.96 358.446 232.023 358.742C232.087 359.037 232.061 359.348 231.945 359.677C231.83 360.003 231.614 360.325 231.298 360.641C231.003 360.935 230.701 361.143 230.39 361.264C230.081 361.383 229.779 361.419 229.486 361.372C229.194 361.324 228.928 361.195 228.687 360.986L229.201 360.472C229.37 360.614 229.55 360.69 229.743 360.701C229.936 360.709 230.128 360.668 230.318 360.577C230.508 360.483 230.685 360.354 230.848 360.191C231.038 360.001 231.178 359.799 231.268 359.586C231.356 359.372 231.389 359.165 231.366 358.965C231.342 358.765 231.255 358.589 231.105 358.439C230.969 358.303 230.819 358.23 230.657 358.22C230.495 358.211 230.325 358.242 230.147 358.313C229.969 358.384 229.787 358.471 229.603 358.576L228.952 358.937C228.538 359.166 228.152 359.289 227.793 359.305C227.434 359.321 227.116 359.19 226.838 358.913C226.608 358.683 226.469 358.42 226.423 358.124C226.376 357.825 226.411 357.522 226.527 357.216C226.644 356.906 226.833 356.62 227.096 356.358C227.361 356.093 227.644 355.905 227.945 355.794C228.245 355.681 228.537 355.646 228.821 355.689C229.106 355.731 229.356 355.852 229.57 356.053L229.088 356.535Z" fill="#141623"/>
<path d="M162.247 398.328C157.828 402.747 154.911 403.366 153.108 403.331C153.143 405.134 152.524 408.051 148.105 412.47L155.459 419.824C157.527 421.892 162.088 424.685 171.493 421.716C174.462 412.311 171.669 407.75 169.601 405.682L162.247 398.328Z" fill="#141623"/>
<path d="M166.619 415.94L167.319 416.64C167.53 416.851 167.529 417.192 167.318 417.404C167.114 417.629 166.767 417.646 166.543 417.443C166.539 417.438 166.534 417.435 166.529 417.43L165.842 416.743C164.943 417.586 163.776 418.084 162.547 418.151C162.368 418.15 162.197 418.078 162.071 417.951C161.779 417.666 161.76 417.202 162.029 416.893C162.146 416.782 162.296 416.711 162.455 416.692C163.324 416.616 164.154 416.292 164.848 415.762L162.348 413.262C160.876 414.109 159.272 414.926 157.853 413.507C156.697 412.351 156.788 410.523 158.099 409.012L157.386 408.3C157.18 408.087 157.181 407.749 157.388 407.536C157.599 407.325 157.941 407.324 158.151 407.535L158.895 408.278C159.659 407.597 160.626 407.184 161.645 407.103C161.824 407.104 161.995 407.176 162.121 407.303C162.412 407.6 162.408 408.078 162.113 408.373C162.019 408.464 161.902 408.525 161.774 408.549C161.104 408.64 160.465 408.892 159.914 409.285L162.107 411.478C163.58 410.631 165.271 409.839 166.746 411.314C167.871 412.389 168.219 414.116 166.619 415.94ZM159.099 410C158.421 410.79 158.357 411.691 158.938 412.272C159.52 412.854 160.259 412.527 161.142 412.043L159.099 410ZM163.382 412.703L165.657 414.978C166.473 413.937 166.236 413.049 165.761 412.574C165.111 411.911 164.291 412.194 163.382 412.703Z" fill="#FBD04A"/>
<defs>
<filter id="filter0_d_2_136" x="205.618" y="14.3633" width="450.767" height="450.766" filterUnits="userSpaceOnUse" color-interpolation-filters="sRGB">
<feFlood flood-opacity="0" result="BackgroundImageFix"/>
<feColorMatrix in="SourceAlpha" type="matrix" values="0 0 0 0 0 0 0 0 0 0 0 0 0 0 0 0 0 0 127 0" result="hardAlpha"/>
<feOffset dy="4"/>
<feGaussianBlur stdDeviation="2"/>
<feColorMatrix type="matrix" values="0 0 0 0 0 0 0 0 0 0 0 0 0 0 0 0 0 0 0.25 0"/>
<feBlend mode="normal" in2="BackgroundImageFix" result="effect1_dropShadow_2_136"/>
<feBlend mode="normal" in="SourceGraphic" in2="effect1_dropShadow_2_136" result="shape"/>
</filter>
</defs>
</svg>
