<svg width="100" height="100" viewBox="0 0 100 100" fill="none" xmlns="http://www.w3.org/2000/svg">
<rect width="100" height="100" rx="6" fill="#00966B"/>
<path d="M34.812 43.1885H29.2891C28.5772 43.1885 28 43.7656 28 44.4775V58.2849C28 58.9968 28.5772 59.574 29.2891 59.574H34.812C35.5239 59.574 36.1011 58.9968 36.1011 58.2849V44.4775C36.1011 43.7656 35.5239 43.1885 34.812 43.1885Z" fill="white"/>
<path d="M58.9745 58.1015C59.6865 58.1015 60.2636 57.5243 60.2636 56.8124V53.9593H60.3552C61.0671 53.9593 61.6443 53.3821 61.6443 52.6702C61.6443 51.9583 61.0671 51.3812 60.3552 51.3812H60.2636V44.3858C60.2636 43.8645 59.9496 43.3944 59.4679 43.1949C58.9864 42.9953 58.4319 43.1055 58.0632 43.4742C58.0631 43.4742 54.0384 47.4975 52.1303 49.4043C51.2732 50.266 50.7817 51.4564 50.7817 52.6702C50.7817 53.3821 51.3589 53.9593 52.0708 53.9593H57.6855V56.8124C57.6855 57.5243 58.2625 58.1015 58.9745 58.1015ZM53.8158 51.3812C53.8596 51.3268 53.9062 51.2748 53.9554 51.2252C54.9209 50.2604 56.431 48.7511 57.6854 47.4971V51.3812H53.8158Z" fill="white"/>
<path d="M48.5281 56.8124C48.5281 56.1005 47.9509 55.5233 47.239 55.5233H42.0804C42.1242 55.469 42.1707 55.4168 42.22 55.3673C44.1255 53.4632 48.1504 49.4396 48.1504 49.4396C48.3922 49.1978 48.5282 48.8699 48.5282 48.528V47.8376C48.5282 45.2235 46.4015 43.0967 43.7873 43.0967C41.1483 43.0967 39.0464 45.2343 39.0464 47.8362V47.8375C39.0464 48.5494 39.6235 49.1259 40.3355 49.1259C41.0474 49.1259 41.6245 48.5481 41.6245 47.8362C41.6245 46.6536 42.5767 45.6748 43.7873 45.6748C44.9799 45.6748 45.95 46.6451 45.95 47.8376V47.9938C44.9048 49.0388 41.9484 51.994 40.3948 53.5466C39.5378 54.4083 39.0464 55.5987 39.0464 56.8124C39.0464 57.5243 39.6235 58.1014 40.3355 58.1014H47.2391C47.9509 58.1014 48.5281 57.5243 48.5281 56.8124Z" fill="white"/>
<path d="M50 30.5781C56.47 30.5781 61.9215 35.0218 63.4632 41.0174C63.9828 40.7572 64.5685 40.6099 65.1882 40.6099H66.0177C64.273 33.3842 57.754 28 50 28C42.2461 28 35.727 33.3842 33.9824 40.6099H34.812C35.4317 40.6099 36.0173 40.7572 36.537 41.0174C38.0786 35.0218 43.5301 30.5781 50 30.5781Z" fill="white"/>
<path d="M63.212 61.6064C61.9235 64.5771 58.9625 66.6605 55.5237 66.6605H53.8398C53.3 65.0573 51.7836 63.899 50.0008 63.899C47.7674 63.899 45.9502 65.7161 45.9502 67.9495C45.9502 70.183 47.7673 72 50.0007 72C51.7835 72 53.2999 70.8418 53.8397 69.2386H55.5236C60.203 69.2386 64.2058 66.2889 65.7722 62.1515H65.1888C64.4669 62.1515 63.7909 61.9522 63.212 61.6064Z" fill="white"/>
<path d="M70.7105 43.1885H65.1875C64.4756 43.1885 63.8984 43.7656 63.8984 44.4775V58.2849C63.8984 58.9968 64.4756 59.574 65.1875 59.574H70.7105C71.4224 59.574 71.9995 58.9968 71.9995 58.2849V44.4775C71.9995 43.7656 71.4224 43.1885 70.7105 43.1885Z" fill="white"/>
</svg>
