<svg width="100" height="100" viewBox="0 0 100 100" fill="none" xmlns="http://www.w3.org/2000/svg">
<rect width="100" height="100" rx="6" fill="#FBD04A"/>
<path d="M49.7342 41.6172C45.1114 41.6172 41.3506 45.378 41.3506 50.0005C41.3506 54.6233 45.1114 58.3841 49.7342 58.3841C54.3567 58.3841 58.1175 54.6233 58.1175 50.0005C58.1175 45.378 54.3567 41.6172 49.7342 41.6172ZM54.7116 48.4217L48.7057 54.4276C48.4536 54.6797 48.1229 54.806 47.7926 54.806C47.4622 54.806 47.1319 54.6801 46.8798 54.4276L44.5847 52.1325C44.0805 51.6286 44.0805 50.8112 44.5847 50.307C45.0885 49.8028 45.906 49.8028 46.4102 50.307L47.7926 51.6894L52.8861 46.5962C53.3899 46.092 54.2074 46.092 54.7116 46.5962C55.2158 47.1001 55.2158 47.9175 54.7116 48.4217Z" fill="white"/>
<path d="M68.4248 39.9384L68.4235 39.9041C68.4044 39.4815 68.3916 39.0343 68.3839 38.5368C68.348 36.1108 66.4194 34.104 63.993 33.9684C58.9341 33.6861 55.0206 32.0365 51.6767 28.7772L51.6482 28.75C50.5575 27.75 48.9123 27.75 47.8213 28.75L47.7927 28.7772C44.4489 32.0365 40.5354 33.6861 35.4765 33.9687C33.0504 34.104 31.1215 36.1108 31.0856 38.5372C31.0782 39.0313 31.0651 39.4785 31.046 39.9041L31.044 39.9837C30.9456 45.1423 30.8234 51.5624 32.9712 57.3898C34.1522 60.5943 35.9407 63.3799 38.2869 65.6696C40.959 68.2773 44.459 70.3475 48.6894 71.8226C48.827 71.8706 48.97 71.9095 49.1157 71.9387C49.3212 71.9797 49.5279 72.0002 49.7347 72.0002C49.9415 72.0002 50.1486 71.9797 50.3537 71.9387C50.4994 71.9095 50.6435 71.8702 50.7818 71.8219C55.0071 70.3442 58.5034 68.2729 61.1732 65.6656C63.5183 63.3752 65.3069 60.5889 66.4889 57.3837C68.6447 51.5389 68.5229 45.1067 68.4248 39.9384ZM49.7341 60.9662C43.6875 60.9662 38.7686 56.0473 38.7686 50.0008C38.7686 43.9543 43.6875 39.0354 49.7341 39.0354C55.7802 39.0354 60.6995 43.9543 60.6995 50.0008C60.6995 56.0473 55.7802 60.9662 49.7341 60.9662Z" fill="white"/>
</svg>
