<svg width="100" height="100" viewBox="0 0 100 100" fill="none" xmlns="http://www.w3.org/2000/svg">
<rect width="100" height="100" rx="6" fill="#FD0525"/>
<path d="M62.3588 44.1706C62.8901 44.1706 63.403 44.2516 63.8857 44.4015L68.2841 40.0031L66.2341 37.9531L60.0166 44.1706H62.3588Z" fill="white"/>
<path d="M71.2448 42.9647L70.1063 41.8262L66.123 45.8094C66.985 46.7314 67.5142 47.9682 67.5142 49.327V50.3412L71.2448 46.6107C72.2516 45.6039 72.2516 43.9715 71.2448 42.9647Z" fill="white"/>
<path d="M64.4102 36.1302L57.0352 28.7551C56.0283 27.7483 54.3959 27.7483 53.3892 28.7551L37.9736 44.1707H56.3697L64.4102 36.1302Z" fill="white"/>
<path d="M34.7671 54.9209H38.6946V57.8199H34.7671V54.9209Z" fill="white"/>
<path d="M62.3583 46.749H30.5781C29.1542 46.749 28 47.9033 28 49.3272V69.4223C28 70.8462 29.1542 72.0004 30.5781 72.0004H62.3583C63.7821 72.0004 64.9365 70.8462 64.9365 69.4223V49.3272C64.9365 47.9033 63.7821 46.749 62.3583 46.749ZM32.1881 52.3433H41.2719V60.3986H32.1881V52.3433ZM37.2035 66.406H32.1079V63.8279H37.2035V66.406ZM45.0784 66.406H39.9828V63.8279H45.0784V66.406ZM52.9535 66.406H47.8579V63.8279H52.9535V66.406ZM60.8285 66.406H55.7329V63.8279H60.8285V66.406Z" fill="white"/>
</svg>
